<?xml version="1.0" encoding="UTF-8"?>
<svg version="1.1" xmlns="http://www.w3.org/2000/svg" width="512" height="512">
<path d="M0 0 C1.70842072 -0.0076664 1.70842072 -0.0076664 3.45135498 -0.01548767 C7.21127599 -0.02937219 10.97101345 -0.02842766 14.73095703 -0.02612305 C17.34880644 -0.03001069 19.96665521 -0.0343455 22.58450317 -0.03910828 C28.07034935 -0.047312 33.55614401 -0.04641959 39.04199219 -0.04101562 C45.36884373 -0.03497869 51.69547272 -0.0472832 58.0222863 -0.06858569 C64.12518429 -0.08837319 70.22797875 -0.09136978 76.33090591 -0.08785057 C78.92000984 -0.08836339 81.50911735 -0.09359372 84.09820175 -0.10366249 C87.72189123 -0.11602496 91.34506847 -0.1092356 94.96875 -0.09765625 C96.566548 -0.10912186 96.566548 -0.10912186 98.19662476 -0.12081909 C105.5294554 -0.06913607 111.4283508 0.68187552 117.30126953 5.4621582 C123.30309848 12.7616799 125.72088155 18.38721771 125.7590332 27.96948242 C125.76541306 29.06436981 125.77179291 30.1592572 125.77836609 31.287323 C125.78003532 33.04062424 125.78003532 33.04062424 125.78173828 34.8293457 C125.78506668 36.04486115 125.78839508 37.26037659 125.79182434 38.51272583 C125.79687883 41.07968773 125.79923312 43.64665618 125.79907227 46.21362305 C125.80125778 50.12861007 125.81942693 54.04331477 125.83837891 57.95825195 C125.84131337 60.45694891 125.84329781 62.9556472 125.84423828 65.4543457 C125.8514238 66.61916473 125.85860931 67.78398376 125.86601257 68.98410034 C125.84890156 75.1084992 125.41996378 80.41269214 123.61376953 86.2746582 C124.29439453 86.2952832 124.97501953 86.3159082 125.67626953 86.3371582 C130.09105123 87.74613108 132.98696765 90.49007161 135.61376953 94.2746582 C139.03354344 101.3961298 139.06895277 108.5057931 138.98876953 116.2746582 C139.00037109 117.3987207 139.01197266 118.5227832 139.02392578 119.6809082 C138.99717916 127.31261058 138.46257404 134.23097598 133.96533203 140.61450195 C133.39556641 141.14172852 132.82580078 141.66895508 132.23876953 142.2121582 C131.67416016 142.75743164 131.10955078 143.30270508 130.52783203 143.86450195 C125.92648501 147.25447394 121.92943804 147.50485761 116.30126953 147.3996582 C115.04701172 147.38161133 113.79275391 147.36356445 112.50048828 147.3449707 C111.54787109 147.32176758 110.59525391 147.29856445 109.61376953 147.2746582 C109.66017578 148.42321289 109.70658203 149.57176758 109.75439453 150.75512695 C110.19208488 166.22129979 107.79949991 177.48997194 97.05126953 189.0246582 C92.95112854 192.80940373 89.14516097 195.75922547 83.98876953 197.9621582 C83.04775391 198.37852539 82.10673828 198.79489258 81.13720703 199.22387695 C77.61376953 200.2746582 77.61376953 200.2746582 66.61376953 201.2746582 C66.61376953 209.5246582 66.61376953 217.7746582 66.61376953 226.2746582 C75.52376953 225.9446582 84.43376953 225.6146582 93.61376953 225.2746582 C93.28376953 224.2846582 92.95376953 223.2946582 92.61376953 222.2746582 C91.58151982 214.33082347 94.81943287 209.30086985 98.80126953 202.5871582 C99.37941406 201.5681543 99.95755859 200.54915039 100.55322266 199.49926758 C108.15609767 186.36390498 108.15609767 186.36390498 114.61376953 184.2746582 C121.06959649 183.19868704 125.19521497 185.88039513 130.74658203 189.05981445 C134.06386596 190.46536664 135.26031848 190.46735291 138.61376953 189.2746582 C141.18481642 187.92086359 141.18481642 187.92086359 143.67626953 186.2746582 C146.65947653 184.36246389 149.11147484 182.92173343 152.61376953 182.2746582 C152.54416016 181.12868164 152.47455078 179.98270508 152.40283203 178.80200195 C151.80892854 164.99944176 151.80892854 164.99944176 155.17626953 160.8371582 C160.36315771 155.67838323 168.0207327 156.01748375 174.82275391 156.0012207 C175.92941406 156.00895508 177.03607422 156.01668945 178.17626953 156.0246582 C179.28679687 156.01692383 180.39732422 156.00918945 181.54150391 156.0012207 C189.52013974 156.02031977 195.64349064 156.4702204 201.61376953 162.2746582 C203.85899889 166.51395567 203.60344909 169.92806242 203.42626953 174.6496582 C203.46098357 177.51356609 203.83105143 179.42617822 204.61376953 182.2746582 C209.40296094 186.58560406 216.09048713 189.87740703 222.61376953 190.2746582 C225.49371931 189.05151326 225.49371931 189.05151326 228.36376953 187.2746582 C233.08001674 184.78906846 236.20185382 183.64245784 241.48095703 184.35668945 C248.85909717 187.53226259 252.11486705 193.80865953 255.86376953 200.5246582 C256.39228516 201.42829102 256.92080078 202.33192383 257.46533203 203.26293945 C261.23818602 209.91810068 264.66230099 216.34266523 262.61376953 224.0246582 C258.90497928 230.05144236 253.59519358 232.90833543 247.61376953 236.2746582 C246.64998531 246.30426349 246.64998531 246.30426349 247.61376953 256.2746582 C250.44212069 259.65790492 253.58865351 260.6867684 257.61376953 262.2746582 C260.58978445 264.7435495 262.31119637 267.42367118 263.61376953 271.0871582 C263.61376953 279.1220483 259.25277914 286.26450398 255.30126953 293.0246582 C254.84042969 293.84836914 254.37958984 294.67208008 253.90478516 295.52075195 C250.53095704 301.34869983 247.25725326 306.06016363 240.61376953 308.2746582 C234.23239859 309.2052748 230.6227955 306.8763494 225.26220703 303.48950195 C222.05415796 302.01796322 220.91383439 302.13370555 217.61376953 303.2746582 C215.68662823 304.2129068 213.79038798 305.21671376 211.92626953 306.2746582 C210.97365234 306.8109082 210.02103516 307.3471582 209.03955078 307.8996582 C208.23904297 308.3534082 207.43853516 308.8071582 206.61376953 309.2746582 C205.95376953 309.6046582 205.29376953 309.9346582 204.61376953 310.2746582 C204.3781821 312.69315707 204.23830767 315.03807532 204.17626953 317.4621582 C203.97316216 324.13849389 203.1402337 328.81467993 198.23876953 333.5871582 C193.13855191 336.86586953 187.66554778 336.40106065 181.80126953 336.3371582 C180.61887695 336.33039063 180.61887695 336.33039063 179.41259766 336.32348633 C177.47962192 336.31177132 175.54668561 336.29383819 173.61376953 336.2746582 C173.94376953 336.9346582 174.27376953 337.5946582 174.61376953 338.2746582 C175.18379548 345.25747603 173.57408504 351.23278931 169.80126953 357.0871582 C163.31343705 363.57499068 156.12161995 365.47008519 147.21627808 365.55682373 C146.06495895 365.5531076 146.06495895 365.5531076 144.89038086 365.54931641 C143.64246513 365.5569828 143.64246513 365.5569828 142.36933899 365.56480408 C139.64475125 365.57860049 136.92041909 365.57775174 134.19580078 365.57543945 C132.29107063 365.57933009 130.38634134 365.58366552 128.48161316 365.58842468 C124.50162941 365.59586414 120.52173442 365.59561085 116.54174805 365.59033203 C111.44400892 365.58452142 106.34663124 365.60151773 101.24895191 365.6246767 C97.3207131 365.63940691 93.39256169 365.64028704 89.46430016 365.63716698 C87.58444181 365.63767992 85.70457855 365.64291264 83.82474709 365.6529789 C81.19924945 365.66532065 78.57446095 365.65856686 75.94897461 365.64697266 C75.17535583 365.65461639 74.40173706 365.66226013 73.60467529 365.6701355 C69.11669592 365.62634803 66.07922887 365.22159671 62.61376953 362.2746582 C61.95376953 360.6246582 61.29376953 358.9746582 60.61376953 357.2746582 C54.34376953 357.2746582 48.07376953 357.2746582 41.61376953 357.2746582 C41.28376953 358.5946582 40.95376953 359.9146582 40.61376953 361.2746582 C38.64363344 363.6925525 37.65869262 364.25968384 34.61376953 365.2746582 C32.98688433 365.37050146 31.35636585 365.4095695 29.72666931 365.4151001 C28.71888428 365.42081024 27.71109924 365.42652039 26.67277527 365.43240356 C25.56783218 365.43352142 24.4628891 365.43463928 23.32446289 365.43579102 C22.1599057 365.44075592 20.99534851 365.44572083 19.79550171 365.45083618 C15.93153294 365.46547489 12.06760526 365.47226391 8.20361328 365.4777832 C6.19748207 365.48208119 4.19135086 365.48637971 2.18521982 365.4907577 C-3.40903715 365.50257176 -9.00328418 365.51010657 -14.59755236 365.5135529 C-21.81495963 365.51802419 -29.03217663 365.53552763 -36.24952608 365.5645535 C-41.83781092 365.58624126 -47.42604252 365.59626107 -53.01436895 365.59759402 C-56.34699871 365.59863768 -59.67930815 365.60591633 -63.01191902 365.62241364 C-66.73847815 365.63953889 -70.4645792 365.63757732 -74.19116211 365.63110352 C-75.28193558 365.6403183 -76.37270905 365.64953308 -77.49653625 365.6590271 C-85.28510903 365.61681323 -93.31018969 364.8782578 -99.76123047 360.0871582 C-104.98460796 354.49068232 -107.59940769 348.13188501 -107.49489403 340.45870209 C-107.31954251 336.93428764 -106.77501825 333.50443031 -106.18041992 330.02954102 C-105.98764214 328.85701279 -105.98764214 328.85701279 -105.79096985 327.66079712 C-105.36751027 325.09856484 -104.93419184 322.53813418 -104.49951172 319.9777832 C-104.19744743 318.17953109 -103.89554487 316.38125181 -103.59379578 314.58294678 C-102.96046182 310.81985172 -102.32158153 307.05774471 -101.67944336 303.29614258 C-100.8627846 298.50649727 -100.06543411 293.71386001 -99.27300739 288.92015457 C-98.6556995 285.20525487 -98.02520298 281.4926788 -97.39116478 277.7806015 C-97.09192279 276.01618388 -96.79729416 274.25097671 -96.50762367 272.48496246 C-93.88887951 256.57680901 -90.52025472 242.46794017 -76.82763672 232.3918457 C-67.22888651 226.34331817 -59.0662096 225.99187455 -47.92138672 226.0793457 C-46.51891787 226.08308112 -45.1164464 226.0859256 -43.713974 226.08792114 C-40.0429652 226.09551599 -36.37211752 226.11512822 -32.70117188 226.1373291 C-28.94712503 226.15787748 -25.19305186 226.16694199 -21.43896484 226.17700195 C-14.08797183 226.19837858 -6.73714435 226.23352624 0.61376953 226.2746582 C0.61376953 218.0246582 0.61376953 209.7746582 0.61376953 201.2746582 C-3.01623047 200.9446582 -6.64623047 200.6146582 -10.38623047 200.2746582 C-21.57556202 197.14784731 -30.57682564 190.80823639 -36.87841797 181.0480957 C-42.83479325 170.09206864 -42.87555654 159.3854784 -42.38623047 147.2746582 C-43.32724609 147.30946289 -44.26826172 147.34426758 -45.23779297 147.38012695 C-46.48302734 147.40719727 -47.72826172 147.43426758 -49.01123047 147.4621582 C-50.24099609 147.49696289 -51.47076172 147.53176758 -52.73779297 147.56762695 C-58.54063107 147.1016603 -62.348068 144.86888121 -66.13623047 140.5246582 C-66.99474609 139.57333008 -66.99474609 139.57333008 -67.87060547 138.6027832 C-72.28747542 131.81810668 -71.72081597 124.21792613 -71.69873047 116.3996582 C-71.71484375 115.26657227 -71.73095703 114.13348633 -71.74755859 112.96606445 C-71.7522265 104.90926144 -71.31115761 97.72457227 -65.94873047 91.3996582 C-65.10310547 90.6984082 -64.25748047 89.9971582 -63.38623047 89.2746582 C-62.68498047 88.6765332 -61.98373047 88.0784082 -61.26123047 87.4621582 C-59.38623047 86.2746582 -59.38623047 86.2746582 -56.38623047 86.2746582 C-56.40717773 84.99413574 -56.428125 83.71361328 -56.44970703 82.39428711 C-56.52257381 77.6046891 -56.56819893 72.81513925 -56.60595703 68.02514648 C-56.62596672 65.95930722 -56.6531833 63.89352383 -56.68798828 61.82788086 C-56.73697763 58.84385318 -56.75930611 55.86057975 -56.77685547 52.8762207 C-56.79750061 51.96538727 -56.81814575 51.05455383 -56.8394165 50.11611938 C-56.84304787 39.53710793 -52.98502492 32.02557143 -45.75341797 24.47387695 C-41.39680554 20.42639709 -37.45256633 17.75680324 -31.63623047 16.3996582 C-27.79694865 15.07067603 -27.2060754 13.70288778 -25.47216797 10.15356445 C-23.07699455 6.0093975 -19.3086324 3.12087943 -14.97433472 1.21296692 C-9.95727743 -0.09902077 -5.16536306 -0.01196801 0 0 Z M168.61376953 238.2746582 C166.22755401 241.73851944 165.60227735 243.61960364 165.67626953 247.8371582 C166.86791362 252.20651985 168.55718259 255.02432233 172.47705078 257.4074707 C176.28653437 258.95354996 179.74951912 258.51602362 183.61376953 257.2746582 C186.95389183 254.9209264 189.05330745 252.22293114 190.18798828 248.27856445 C190.54118029 244.25217559 189.54639554 241.58363333 187.17626953 238.3371582 C184.04189906 235.10645956 181.25426615 234.1592288 176.79345703 234.0090332 C173.179726 234.4494162 171.24820129 235.82840015 168.61376953 238.2746582 Z " fill="#020202" transform="translate(222.38623046875,136.725341796875)"/>
<path d="M0 0 C0.84175781 -0.020625 1.68351563 -0.04125 2.55078125 -0.0625 C7.26306928 -0.0921837 10.84289042 -0.0878381 14.5 3.25 C14.83 4.9 15.16 6.55 15.5 8.25 C22.1 8.25 28.7 8.25 35.5 8.25 C35.83 6.6 36.16 4.95 36.5 3.25 C40.70243088 -0.53136216 45.3372643 -0.21491114 50.6875 -0.125 C51.96016724 -0.11194824 51.96016724 -0.11194824 53.25854492 -0.09863281 C61.99635899 0.1057997 69.62199023 1.49166623 76.5 7.25 C81.78126128 13.28152403 83.76669869 19.11304752 83.6953125 27.1796875 C83.69031738 28.34226074 83.68532227 29.50483398 83.68017578 30.70263672 C83.66196777 32.1620166 83.64375977 33.62139648 83.625 35.125 C83.58375 39.78625 83.5425 44.4475 83.5 49.25 C101.98 49.25 120.46 49.25 139.5 49.25 C139.34263366 40.11095562 139.34263366 40.11095562 139.13964844 30.97290039 C139.06167937 21.95804143 139.98007204 15.41833574 145.875 8.4375 C156.0762943 -0.06357859 165.52072298 -0.06427775 178.2421875 -0.05078125 C179.77621576 -0.05467575 181.31024296 -0.05901196 182.8442688 -0.06376648 C186.05002344 -0.07119996 189.2556679 -0.07095851 192.46142578 -0.06567383 C196.54532151 -0.05988496 200.62876284 -0.07680987 204.71258354 -0.1000185 C207.87841374 -0.1148362 211.04413653 -0.11561666 214.20999527 -0.11250877 C215.7145083 -0.11301802 217.21902798 -0.11818027 218.72350693 -0.12832069 C230.17450604 -0.19603824 240.18780608 0.12352418 248.80859375 8.34375 C253.79373391 13.96210658 255.63022506 19.42846166 255.59765625 26.88671875 C255.59443359 28.18544922 255.59121094 29.48417969 255.58789062 30.82226562 C255.57953531 32.19401108 255.57107037 33.56575587 255.5625 34.9375 C255.55748335 36.32096195 255.55292073 37.70442563 255.54882812 39.08789062 C255.53702529 42.47530395 255.52056019 45.86263033 255.5 49.25 C256.53817871 49.23428955 257.57635742 49.2185791 258.64599609 49.20239258 C262.54109776 49.14760943 266.4361662 49.11347615 270.33154297 49.08520508 C272.00933583 49.07022766 273.68709028 49.04983846 275.36474609 49.02368164 C298.11596903 48.6781449 298.11596903 48.6781449 307.6796875 56.44140625 C312.74689633 61.47599356 317.17323167 68.08039715 317.74050903 75.31892395 C317.73606781 76.46253891 317.73162659 77.60615387 317.72705078 78.78442383 C317.72689972 80.08539505 317.72674866 81.38636627 317.72659302 82.72676086 C317.71638124 84.13685257 317.70594927 85.54694269 317.6953125 86.95703125 C317.69157959 88.40719914 317.68873393 89.85736957 317.68673706 91.30754089 C317.67912249 95.11338334 317.65949289 98.9190717 317.6373291 102.72485352 C317.61682363 106.61277177 317.60772531 110.50071506 317.59765625 114.38867188 C317.57624478 122.00918462 317.54213534 129.62957067 317.5 137.25 C318.41700684 137.22381592 319.33401367 137.19763184 320.27880859 137.1706543 C323.72688934 137.08472421 327.17380995 137.02241469 330.62255859 136.9753418 C332.10646679 136.95041162 333.59025495 136.91645375 335.07373047 136.87280273 C344.01602863 136.61653323 352.02880384 136.5898608 359.5 142.25 C365.34438859 148.4653081 367.80178016 154.19920722 367.79052734 162.7590332 C367.80060318 163.86739029 367.80060318 163.86739029 367.81088257 164.99813843 C367.82982555 167.43242179 367.83378501 169.86642884 367.8359375 172.30078125 C367.84236856 174.00083019 367.84909715 175.70087804 367.85610962 177.40092468 C367.86807352 180.96254033 367.87179141 184.52405905 367.87060547 188.08569336 C367.87040246 192.6351702 367.8976898 197.18402112 367.93214989 201.7333498 C367.95445963 205.24481524 367.95844175 208.7561311 367.95738602 212.26766014 C367.95973641 213.94409527 367.96852815 215.62053488 367.98405075 217.2968998 C368.13214515 234.94408828 368.13214515 234.94408828 361.3515625 242.7109375 C360.61679687 243.34257812 359.88203125 243.97421875 359.125 244.625 C358.39539063 245.27210938 357.66578125 245.91921875 356.9140625 246.5859375 C351.89954447 250.04254702 346.84049621 250.54840458 340.89331055 250.54052734 C340.15586609 250.54724457 339.41842163 250.55396179 338.65863037 250.56088257 C336.23459019 250.57979072 333.81082797 250.58378319 331.38671875 250.5859375 C329.69049468 250.59237077 327.99427171 250.59909953 326.29804993 250.60610962 C322.74660675 250.61806468 319.1952607 250.62179231 315.64379883 250.62060547 C311.11126337 250.62040246 306.57935618 250.64769339 302.04696941 250.68214989 C298.54404384 250.70447803 295.04126801 250.70844119 291.53827858 250.70738602 C289.86825205 250.70973351 288.19822086 250.71850864 286.528265 250.73405075 C269.82720267 250.8749274 269.82720267 250.8749274 262.5 246.25 C261.5925 245.693125 260.685 245.13625 259.75 244.5625 C253.23994952 237.87161479 251.39141088 230.62228699 251.33886719 221.50708008 C251.33390228 220.8494165 251.32893738 220.19175293 251.32382202 219.51416016 C251.30927913 217.34927298 251.30241045 215.18445915 251.296875 213.01953125 C251.29404762 212.27535131 251.29122025 211.53117138 251.28830719 210.76444054 C251.2733438 206.82366967 251.26409727 202.88293512 251.25976562 198.94213867 C251.25429539 194.89517804 251.23029009 190.84855629 251.20179367 186.80170155 C251.18305701 183.66933765 251.17795579 180.53705346 251.17642975 177.40463829 C251.17342584 175.91407106 251.1654749 174.42350447 251.15224457 172.93299294 C250.98159599 152.22446627 250.98159599 152.22446627 257.625 144.875 C258.40230469 143.96621094 258.40230469 143.96621094 259.1953125 143.0390625 C267.62966643 136.49171657 276.38231558 136.75365836 286.5625 137 C288.01494923 137.0201031 289.46742544 137.03834712 290.91992188 137.0546875 C294.44718334 137.09836494 297.97341499 137.16717893 301.5 137.25 C301.46188989 129.26951127 301.40245228 121.28958295 301.31609726 113.30948448 C301.27665832 109.60360366 301.24445266 105.89795916 301.22900391 102.19189453 C301.2138131 98.61246573 301.17932627 95.03368676 301.13169098 91.45454788 C301.11690184 90.09193204 301.10896039 88.7292234 301.10811615 87.36652756 C301.36331198 79.17814168 301.36331198 79.17814168 298.89941406 71.55322266 C293.76964285 66.62910161 288.24746251 65.80030897 281.37890625 65.73828125 C280.26176491 65.71135445 280.26176491 65.71135445 279.12205505 65.68388367 C276.76892577 65.6301769 274.41599456 65.59601457 272.0625 65.5625 C270.45635287 65.52929171 268.85023176 65.49479885 267.24414062 65.45898438 C263.32957101 65.37447426 259.41505606 65.30747629 255.5 65.25 C255.51571045 66.08660156 255.5314209 66.92320313 255.54760742 67.78515625 C255.59909005 70.9236416 255.63652108 74.06190988 255.66479492 77.20068359 C255.68709408 79.21336248 255.72523653 81.22584584 255.76367188 83.23828125 C255.83758608 93.04423225 255.05356863 100.26102985 248.25 107.7109375 C242.45219592 112.80989913 235.86860036 114.37059181 228.32568359 114.42700195 C227.59843079 114.43357315 226.87117798 114.44014435 226.12188721 114.44691467 C223.71406953 114.46662932 221.30631431 114.47830874 218.8984375 114.48828125 C218.07394733 114.49235678 217.24945717 114.4964323 216.39998245 114.50063133 C212.03244529 114.52148845 207.66493947 114.53578934 203.29736328 114.54516602 C198.80176897 114.55620449 194.30667317 114.59057541 189.8112545 114.63033772 C186.34179817 114.65658069 182.87245898 114.66486484 179.40291214 114.66844749 C177.74682896 114.67329694 176.09075044 114.68486377 174.43476486 114.70348549 C164.05662779 114.81289532 155.76817673 114.33732506 147.1875 107.9375 C142.36814547 103.11814547 139.63676654 98.00416797 139.38647461 91.13378906 C139.39171143 89.93979492 139.39694824 88.74580078 139.40234375 87.515625 C139.40484131 86.34805664 139.40733887 85.18048828 139.40991211 83.97753906 C139.42356812 81.76115723 139.42356812 81.76115723 139.4375 79.5 C139.458125 74.7975 139.47875 70.095 139.5 65.25 C121.02 65.25 102.54 65.25 83.5 65.25 C83.61812139 74.43386884 83.61812139 74.43386884 83.77026367 83.6171875 C83.83282264 93.28221134 82.94600414 100.37881297 76.25 107.7109375 C70.45219592 112.80989913 63.86860036 114.37059181 56.32568359 114.42700195 C55.59843079 114.43357315 54.87117798 114.44014435 54.12188721 114.44691467 C51.71406953 114.46662932 49.30631431 114.47830874 46.8984375 114.48828125 C46.07394733 114.49235678 45.24945717 114.4964323 44.39998245 114.50063133 C40.03244529 114.52148845 35.66493947 114.53578934 31.29736328 114.54516602 C26.80176897 114.55620449 22.30667317 114.59057541 17.8112545 114.63033772 C14.34179817 114.65658069 10.87245898 114.66486484 7.40291214 114.66844749 C5.74682896 114.67329694 4.09075044 114.68486377 2.43476486 114.70348549 C-7.94337221 114.81289532 -16.23182327 114.33732506 -24.8125 107.9375 C-29.63185453 103.11814547 -32.36323346 98.00416797 -32.61352539 91.13378906 C-32.60567017 89.34279785 -32.60567017 89.34279785 -32.59765625 87.515625 C-32.59282227 85.57236328 -32.59282227 85.57236328 -32.58789062 83.58984375 C-32.57953598 82.22656183 -32.57107104 80.86328058 -32.5625 79.5 C-32.55748168 78.12109535 -32.55291935 76.74218896 -32.54882812 75.36328125 C-32.53704093 71.99214341 -32.52058635 68.62109372 -32.5 65.25 C-37.19631158 65.29442043 -41.89131263 65.36452783 -46.58691406 65.45751953 C-48.18120847 65.48558582 -49.77563832 65.50687113 -51.37011719 65.52099609 C-63.60212719 65.37154311 -63.60212719 65.37154311 -74.5 70.25 C-77.32035932 74.05893781 -77.8845278 76.81063001 -77.93237305 81.5090332 C-77.95216721 82.74994217 -77.97196136 83.99085114 -77.99235535 85.2693634 C-77.99912402 86.61316781 -78.00557101 87.95697386 -78.01171875 89.30078125 C-78.02857468 90.68370654 -78.04672616 92.06661659 -78.06611633 93.44950867 C-78.1135239 97.07767984 -78.1433926 100.70578922 -78.16955566 104.33416748 C-78.19940819 108.04126179 -78.24592229 111.74814342 -78.29101562 115.45507812 C-78.37694335 122.71994633 -78.44433497 129.98483018 -78.5 137.25 C-77.1699292 137.21072388 -77.1699292 137.21072388 -75.81298828 137.1706543 C-72.47671814 137.08469039 -69.14164895 137.02239958 -65.8046875 136.9753418 C-64.36927552 136.95042145 -62.93398743 136.91647125 -61.49902344 136.87280273 C-51.63280571 136.58039391 -43.57801011 137.1682915 -35.6784668 143.77294922 C-27.4636671 152.23472657 -28.04901274 163.97349236 -28.1015625 175.00390625 C-28.09953654 176.51505168 -28.09662078 178.02619614 -28.09286499 179.53733826 C-28.0884675 182.68831792 -28.09478969 185.83904068 -28.10888672 188.98999023 C-28.12599209 193.00669801 -28.11611281 197.02280481 -28.09816933 201.0394907 C-28.08727392 204.15468284 -28.09080379 207.26973496 -28.0985527 210.38493156 C-28.10053808 211.86514293 -28.09815463 213.34536748 -28.09111404 214.82556343 C-28.04998927 225.8963809 -28.67541056 235.76230976 -36.5 244.25 C-42.63718881 249.08140396 -48.4055935 250.5507277 -56.10668945 250.54052734 C-56.84413391 250.54724457 -57.58157837 250.55396179 -58.34136963 250.56088257 C-60.76540981 250.57979072 -63.18917203 250.58378319 -65.61328125 250.5859375 C-67.30950532 250.59237077 -69.00572829 250.59909953 -70.70195007 250.60610962 C-74.25339325 250.61806468 -77.8047393 250.62179231 -81.35620117 250.62060547 C-85.88873663 250.62040246 -90.42064382 250.64769339 -94.95303059 250.68214989 C-98.45595616 250.70447803 -101.95873199 250.70844119 -105.46172142 250.70738602 C-107.13174795 250.70973351 -108.80177914 250.71850864 -110.471735 250.73405075 C-120.37381862 250.81757672 -128.52294551 250.59602775 -136.8046875 244.57421875 C-137.32289063 244.03410156 -137.84109375 243.49398437 -138.375 242.9375 C-138.90867188 242.40511719 -139.44234375 241.87273437 -139.9921875 241.32421875 C-143.84877919 236.01890738 -144.9477904 231.00382647 -144.91992188 224.5456543 C-144.93262619 223.44167801 -144.93262619 223.44167801 -144.94558716 222.31539917 C-144.96883364 219.90149266 -144.96998216 217.48822837 -144.96875 215.07421875 C-144.97586009 213.38181814 -144.98356032 211.68941992 -144.99182129 209.99702454 C-145.00523852 206.45571184 -145.0068478 202.91462195 -145.00097656 199.37329102 C-144.99508926 194.857528 -145.02564402 190.34284337 -145.06609344 185.82728863 C-145.09207364 182.33287396 -145.09483846 178.83871522 -145.09120178 175.3442173 C-145.09288404 173.68059395 -145.10243952 172.01695762 -145.12034607 170.35342979 C-145.28839165 152.81011796 -145.28839165 152.81011796 -139.5 145.25 C-133.21952321 139.35253274 -127.69464962 136.9855008 -119.01171875 137.0546875 C-118.30852005 137.0575174 -117.60532135 137.06034729 -116.8808136 137.06326294 C-114.64953108 137.07439849 -112.41865983 137.09949003 -110.1875 137.125 C-108.66862562 137.1350384 -107.1497449 137.14416274 -105.63085938 137.15234375 C-101.92044079 137.17431587 -98.21026058 137.20879953 -94.5 137.25 C-94.51332367 136.46232239 -94.52664734 135.67464478 -94.54037476 134.86309814 C-94.66126823 127.39111464 -94.75228329 119.91961417 -94.81087303 112.44690323 C-94.84200914 108.60626297 -94.88414856 104.76643972 -94.95263672 100.92626953 C-95.01847453 97.21088546 -95.05383878 93.49628035 -95.06926346 89.78035736 C-95.08023603 88.37227891 -95.10165926 86.96423664 -95.13438034 85.55649567 C-95.37126289 74.92956352 -93.77985664 66.0994936 -86.45858765 57.98834229 C-78.77871801 50.69425226 -70.47832086 49.08226434 -60.13671875 49.15234375 C-58.94874443 49.15446617 -58.94874443 49.15446617 -57.73677063 49.15663147 C-55.22030781 49.16220543 -52.70393569 49.17475307 -50.1875 49.1875 C-48.47591275 49.19251837 -46.76432409 49.19708069 -45.05273438 49.20117188 C-40.86845492 49.21216632 -36.68424281 49.22941293 -32.5 49.25 C-32.5314209 48.00295288 -32.5314209 48.00295288 -32.56347656 46.73071289 C-32.6322107 43.60526734 -32.6820689 40.48021079 -32.71972656 37.35424805 C-32.74940781 35.35243949 -32.80027058 33.35098081 -32.8515625 31.34960938 C-32.9409434 22.47855495 -32.07517252 16.16690393 -26.82421875 8.9453125 C-18.86877467 1.312643 -10.72011683 0.06566687 0 0 Z " fill="#000101" transform="translate(144.5,9.75)"/>
<path d="M0 0 C4.34682788 1.63320123 8.43494857 3.70090148 12.5625 5.8125 C26.89715225 13.03375266 39.45288989 18.28584511 55.6875 17.8125 C62.81995014 17.62329713 67.49188367 17.6533441 73.125 22.46875 C78.46653892 26.83100678 85.71440538 27.15165213 92.33203125 27.57421875 C94.20918823 27.6973645 94.20918823 27.6973645 96.12426758 27.82299805 C97.07325928 27.88140869 98.02225098 27.93981934 99 28 C99.09314049 35.78060981 99.1639863 43.56108627 99.20724869 51.3421154 C99.22802442 54.95614345 99.25615513 58.56978695 99.30175781 62.18359375 C99.34557814 65.67847537 99.36921218 69.17298976 99.37950897 72.66812515 C99.39037481 74.63441341 99.42154181 76.60055623 99.45318604 78.56661987 C99.45584015 89.28863407 97.29883411 97.4144627 89.8671875 105.30859375 C83.68136707 110.91206707 77.66542684 112.14577411 69.54443359 112.17700195 C68.42648407 112.18685875 68.42648407 112.18685875 67.28594971 112.19691467 C64.82344449 112.21659624 62.36100023 112.22830094 59.8984375 112.23828125 C58.6318524 112.24439454 58.6318524 112.24439454 57.33967972 112.25063133 C52.86724342 112.27147369 48.3948376 112.28578135 43.92236328 112.29516602 C39.32264815 112.30620549 34.7234201 112.34058196 30.12387657 112.38033772 C26.57031408 112.4065966 23.01686583 112.41486621 19.46321487 112.41844749 C17.76888376 112.42329229 16.07455701 112.43484556 14.3803215 112.45348549 C3.41521334 112.56659145 -6.24502964 112.41509997 -14.875 104.8125 C-20.46463714 98.70872171 -23.06956607 90.97107675 -23.2722168 82.81958008 C-23.32051888 80.90662895 -23.32051888 80.90662895 -23.36979675 78.95503235 C-23.47188144 73.88482314 -23.54665228 68.81420887 -23.60025311 63.74326038 C-23.64120365 59.89748117 -23.7015173 56.05425267 -23.80932617 52.2097168 C-23.91342657 48.48418801 -23.96770735 44.76093077 -23.98771095 41.03403282 C-24.00358174 39.61967676 -24.03667556 38.20539814 -24.08786583 36.79187965 C-24.46849809 25.75112229 -24.46849809 25.75112229 -20.83682251 21.42050171 C-18.31308761 19.39770575 -15.74530394 17.70297044 -13 16 C-7.62223873 11.33285119 -3.73753513 6.03755674 0 0 Z " fill="#FDCCBD" transform="translate(218,210)"/>
<path d="M0 0 C6.93 0 13.86 0 21 0 C21.3125 9.3125 21.3125 9.3125 21.38793945 12.2355957 C21.42105225 12.99960693 21.45416504 13.76361816 21.48828125 14.55078125 C21.51446533 15.33106689 21.54064941 16.11135254 21.56762695 16.9152832 C22.10067745 19.48542335 22.98221015 20.37074797 25 22 C26.92437848 22.99842635 26.92437848 22.99842635 29.0625 23.8125 C35.38621761 26.50498009 41.56796972 29.74168617 46.625 34.4375 C49.48318871 36.31788731 51.40216051 36.34938564 54.74609375 35.765625 C58.43306437 34.51320517 61.51491292 32.38300604 64.703125 30.1796875 C67 29 67 29 69.0234375 28.89453125 C72.22834639 30.68700006 73.64203464 33.70004416 75.375 36.8125 C75.94541016 37.75706055 75.94541016 37.75706055 76.52734375 38.72070312 C79.12698007 43.29165038 79.12698007 43.29165038 78.6015625 46.22265625 C76.37207853 48.69683969 73.91830175 50.03256131 71 51.625 C66.7098953 53.92654724 66.7098953 53.92654724 63 57 C62.79853598 60.693507 62.82646811 63.47940432 64 67 C64.0962762 69.01896864 64.12981825 71.0412429 64.125 73.0625 C64.12371094 74.21878906 64.12242187 75.37507813 64.12109375 76.56640625 C64.01333164 79.62198339 63.66343614 82.48573778 63.1875 85.5 C62.8119434 89.02795597 62.77497732 89.65858628 64.8125 92.75 C68.38348912 95.2706982 72.05734807 97.47221714 75.890625 99.5703125 C78 101 78 101 79 104 C78.28735352 105.7175293 78.28735352 105.7175293 77.12890625 107.57421875 C76.51499023 108.57485352 76.51499023 108.57485352 75.88867188 109.59570312 C75.45103516 110.28599609 75.01339844 110.97628906 74.5625 111.6875 C74.12873047 112.38939453 73.69496094 113.09128906 73.24804688 113.81445312 C72.17449413 115.54865372 71.08841346 117.27508744 70 119 C65.89322221 118.42178941 63.13824537 117.03932021 59.625 114.875 C56.12814737 112.93438741 54.29148606 112.0194324 50.25 111.75 C46.66768 113.12781539 44.70727032 114.79425113 41.9453125 117.3828125 C38.38677016 120.34111878 34.16542923 122.05175046 30 124 C27.36 125.32 24.72 126.64 22 128 C21.67 134.6 21.34 141.2 21 148 C14.07 148 7.14 148 0 148 C-0.3125 138.6875 -0.3125 138.6875 -0.38793945 135.7644043 C-0.42105225 135.00039307 -0.45416504 134.23638184 -0.48828125 133.44921875 C-0.52755737 132.27879028 -0.52755737 132.27879028 -0.56762695 131.0847168 C-1.10310311 128.50288118 -1.95763708 127.62300675 -4 126 C-5.76674227 125.23160733 -7.56339902 124.53067328 -9.375 123.875 C-15.74024354 121.37519526 -20.5706102 117.89237066 -25.89453125 113.6953125 C-29.88701783 111.51576637 -31.66074702 111.78983056 -36 113 C-39.33572237 114.57656457 -39.33572237 114.57656457 -42.4375 116.5625 C-43.48808594 117.20316406 -44.53867187 117.84382813 -45.62109375 118.50390625 C-46.79865234 119.24447266 -46.79865234 119.24447266 -48 120 C-51.28834617 117.20957375 -53.12735689 113.52671824 -55.1875 109.8125 C-55.55552734 109.15830078 -55.92355469 108.50410156 -56.30273438 107.83007812 C-57.2062466 106.22253039 -58.1037241 104.61159349 -59 103 C-55.61902879 99.1343441 -51.04387559 97.08921121 -46.6171875 94.62109375 C-43.91263861 93.26268448 -43.91263861 93.26268448 -43 91 C-42.52856991 86.11656011 -42.34495638 81.23809061 -42.21044922 76.33496094 C-42.15381868 74.70464861 -42.07206366 73.07500155 -41.96435547 71.44726562 C-41.38123555 63.60175617 -41.38123555 63.60175617 -43 56 C-46.95323761 52.12260387 -50.96409777 50.29350869 -56 48 C-56.99 47.01 -57.98 46.02 -59 45 C-55.7 39.39 -52.4 33.78 -49 28 C-46.265625 29.49739583 -43.53125 30.99479167 -40.796875 32.4921875 C-39.87390625 32.98976563 -38.9509375 33.48734375 -38 34 C-36.92685547 34.5878125 -36.92685547 34.5878125 -35.83203125 35.1875 C-32.67423925 36.58797065 -30.1180577 36.19031998 -27 35 C-24.25915298 33.15376544 -21.67182518 31.15525791 -19.05859375 29.1328125 C-14.85069664 26.19857007 -10.37628948 24.28457197 -5.65234375 22.32421875 C-2.73642947 21.14268223 -2.73642947 21.14268223 -1 18 C-0.63648496 15.97457852 -0.63648496 15.97457852 -0.5859375 13.76953125 C-0.55032715 13.04612549 -0.5147168 12.32271973 -0.47802734 11.57739258 C-0.44402832 10.66497803 -0.4100293 9.75256348 -0.375 8.8125 C-0.189375 4.4503125 -0.189375 4.4503125 0 0 Z M1 66 C-1.38621552 69.46386124 -2.01149219 71.34494544 -1.9375 75.5625 C-0.74585591 79.93186165 0.94341306 82.74966412 4.86328125 85.1328125 C8.67276484 86.67889176 12.13574959 86.24136542 16 85 C19.3401223 82.6462682 21.43953792 79.94827294 22.57421875 76.00390625 C22.92741076 71.97751739 21.93262601 69.30897512 19.5625 66.0625 C16.42812953 62.83180136 13.64049662 61.88457059 9.1796875 61.734375 C5.56595647 62.17475799 3.63443175 63.55374194 1 66 Z " fill="#7A9FAE" transform="translate(390,309)"/>
<path d="M0 0 C1.35019981 0.00636726 1.35019981 0.00636726 2.72767639 0.01286316 C5.58048411 0.02955059 8.43256488 0.06718378 11.28515625 0.10546875 C13.22850537 0.12052845 15.17186564 0.1342146 17.11523438 0.14648438 C21.85965174 0.17942149 26.60353108 0.23113435 31.34765625 0.29296875 C39.12735709 15.71218484 39.12735709 15.71218484 41.921875 21.8359375 C42.45844727 23.0105957 42.45844727 23.0105957 43.00585938 24.20898438 C43.71021352 25.76337501 44.40781761 27.32083721 45.09960938 28.88085938 C47.48663583 34.06796786 50.01918609 38.62873367 55.34765625 41.29296875 C60.95235316 41.66661521 64.53474128 41.50157873 69.34765625 38.29296875 C71.15312734 36.37526568 72.72710778 34.37653107 74.34765625 32.29296875 C74.67765625 32.29296875 75.00765625 32.29296875 75.34765625 32.29296875 C75.34765625 57.37296875 75.34765625 82.45296875 75.34765625 108.29296875 C47.30714199 108.45340399 47.30714199 108.45340399 35.375 108.48828125 C27.22596756 108.51221325 19.0771132 108.53996018 10.92822266 108.59472656 C4.36006327 108.63884826 -2.20795418 108.66209186 -8.77626801 108.67247772 C-11.28497089 108.67988123 -13.793663 108.69433811 -16.30228424 108.71588898 C-19.81015453 108.74483164 -23.31722527 108.74892844 -26.82519531 108.74707031 C-27.86744766 108.76145142 -28.90970001 108.77583252 -29.98353577 108.79064941 C-36.9620179 108.75052356 -36.9620179 108.75052356 -40.3044281 106.53514099 C-44.72423549 99.18307156 -40.73158148 87.48006087 -39.3515625 79.5546875 C-39.11151683 78.14291056 -38.87209324 76.73102773 -38.633255 75.31904602 C-38.13306275 72.37236447 -37.62743112 69.42668915 -37.11743164 66.48168945 C-36.4704775 62.74497158 -35.83405998 59.0065601 -35.20140362 55.26739788 C-34.7077832 52.35398996 -34.2100425 49.4412979 -33.71097755 46.52881813 C-33.47533061 45.15254379 -33.24053744 43.77612294 -33.00668907 42.39954185 C-27.97997103 12.89564381 -27.97997103 12.89564381 -19.77734375 5.48046875 C-13.0834666 0.79475474 -7.99338769 -0.14380045 0 0 Z " fill="#F1FAFE" transform="translate(172.65234375,377.70703125)"/>
<path d="M0 0 C0.93921295 -0.01134979 1.8784259 -0.02269958 2.84609985 -0.03439331 C3.8695752 -0.03146271 4.89305054 -0.0285321 5.94754028 -0.0255127 C7.57255966 -0.03821701 7.57255966 -0.03821701 9.23040771 -0.05117798 C12.81608786 -0.07460075 16.40134016 -0.07556879 19.98709106 -0.07434082 C22.47806979 -0.08143957 24.96904687 -0.08913815 27.46002197 -0.09741211 C32.68377221 -0.11086937 37.90737129 -0.1124202 43.13113403 -0.10656738 C48.49526381 -0.1006631 53.85889975 -0.11474193 59.22293091 -0.14758301 C65.69856074 -0.18669877 72.17376597 -0.20138406 78.64950943 -0.1967926 C81.1174718 -0.19848655 83.58544202 -0.20815527 86.05334091 -0.22593689 C89.50554678 -0.24807127 92.95627696 -0.23845071 96.40847778 -0.2208252 C97.42790466 -0.23408844 98.44733154 -0.24735168 99.49765015 -0.26101685 C103.90036005 -0.20878743 107.31624824 -0.11375733 110.94303894 2.55711365 C113.67669325 5.83756586 114.05343917 7.19263321 114.03616333 11.40637207 C114.04539322 12.59432877 114.05462311 13.78228546 114.06413269 15.00624084 C114.03179787 16.91734901 114.03179787 16.91734901 113.99880981 18.86706543 C113.99743515 20.18226669 113.99606049 21.49746796 113.99464417 22.8525238 C113.98996189 25.63105101 113.9651942 28.40841175 113.92483521 31.18664551 C113.87381393 34.74336813 113.86239414 38.29881304 113.86467075 41.8558588 C113.86365784 45.2555981 113.8371392 48.65492036 113.81130981 52.05456543 C113.80797134 53.33066177 113.80463287 54.60675812 113.80119324 55.92152405 C113.7724839 57.69873085 113.7724839 57.69873085 113.74319458 59.51184082 C113.73175919 60.5537709 113.72032379 61.59570099 113.70854187 62.66920471 C113.2515985 65.77353079 112.45445129 67.14052663 110.30740356 69.39440918 C102.56149633 72.90100232 93.38314113 73.90167135 85.22927856 71.48034668 C80.2704938 69.54916166 76.14093659 67.43966776 72.05740356 64.01940918 C69.09954235 61.65312021 68.69033872 61.38120452 64.68240356 61.51940918 C64.02498169 61.66120605 63.36755981 61.80300293 62.69021606 61.94909668 C40.00953221 66.18778186 19.36566743 53.45676512 1.30740356 41.39440918 C0.97740356 41.06440918 0.64740356 40.73440918 0.30740356 40.39440918 C-4.23421864 39.86867839 -4.23421864 39.86867839 -8.25509644 41.56237793 C-10.07168834 43.87754533 -11.1192542 46.26939897 -12.31759644 48.95690918 C-16.62967673 57.79506879 -23.06540308 65.51109219 -31.69259644 70.39440918 C-34.89962769 70.51159668 -34.89962769 70.51159668 -37.69259644 70.39440918 C-37.81682273 64.84436069 -37.90722961 59.29513336 -37.96725464 53.74401855 C-37.99229421 51.85845835 -38.02633643 49.9729942 -38.0697937 48.08776855 C-38.13091429 45.36682354 -38.15891137 42.64716891 -38.18087769 39.92565918 C-38.20668411 39.09199829 -38.23249054 38.2583374 -38.25907898 37.39941406 C-38.26232337 30.52477587 -35.98814413 25.80168016 -31.21403503 20.86572266 C-26.16569238 16.39846926 -21.13514595 15.17185893 -14.68087769 14.05456543 C-12.31596881 13.49557802 -12.31596881 13.49557802 -10.69259644 10.39440918 C-10.40384644 9.23940918 -10.11509644 8.08440918 -9.81759644 6.89440918 C-8.11107094 1.58521874 -5.47577207 0.02506928 0 0 Z " fill="#BB7B62" transform="translate(218.69259643554688,151.6055908203125)"/>
<path d="M0 0 C1.00023193 0.00523682 2.00046387 0.01047363 3.03100586 0.01586914 C4.1105957 0.0190918 5.19018555 0.02231445 6.30249023 0.02563477 C8.00695312 0.03820312 8.00695312 0.03820312 9.74584961 0.05102539 C11.45611328 0.05779297 11.45611328 0.05779297 13.20092773 0.06469727 C16.02845312 0.07652792 18.85587601 0.09301129 21.68334961 0.11352539 C23.1238849 11.22432074 23.1238849 11.22432074 21.68334961 16.11352539 C18.82552719 18.87565208 16.24412287 20.20476161 12.60131836 21.75415039 C9.48883971 23.20414044 8.30640379 24.12688487 6.68334961 27.11352539 C4.78091649 35.38689735 8.49893222 41.28399004 12.68334961 48.11352539 C13.35829795 49.34409787 14.0259678 50.57868351 14.68725586 51.81665039 C15.02885742 52.44667969 15.37045898 53.07670898 15.72241211 53.72583008 C16.3898667 54.95692714 17.05037924 56.19182094 17.70288086 57.4309082 C19.8180779 61.2343619 21.70272666 63.32441181 25.68334961 65.11352539 C31.39726666 66.50427124 35.51860961 64.9084529 40.49584961 62.05102539 C41.38916992 61.48254883 42.28249023 60.91407227 43.20288086 60.32836914 C45.68334961 59.11352539 45.68334961 59.11352539 47.69897461 59.24633789 C50.1561786 60.32015538 52.35183871 61.62109403 54.62084961 63.05102539 C57.9003568 65.11402296 61.04665046 66.76684073 64.68334961 68.11352539 C64.73942383 69.63333008 64.73942383 69.63333008 64.79663086 71.18383789 C64.86233349 72.53543478 64.92877931 73.88699568 64.99584961 75.23852539 C65.0184082 75.90368164 65.0409668 76.56883789 65.06420898 77.25415039 C65.31417424 81.88986967 66.37024151 85.1127925 68.68334961 89.11352539 C71.12133737 93.73287062 71.66525221 98.99598219 70.68334961 104.11352539 C69.19056702 106.23252869 69.19056702 106.23252869 66.68334961 108.11352539 C63.70103649 108.50095007 61.0876084 108.64753334 58.10693359 108.61181641 C56.81118408 108.6200946 56.81118408 108.6200946 55.48925781 108.62854004 C53.616091 108.63785762 51.74286084 108.63796719 49.86968803 108.62994576 C46.90678552 108.61733521 43.94481717 108.62858656 40.98194885 108.64598083 C35.7634228 108.67270135 30.54512516 108.6782756 25.32653809 108.67687988 C16.96970299 108.67465233 8.61314996 108.68866859 0.25642586 108.73246574 C-2.66583341 108.74233129 -5.58765252 108.73357356 -8.50990295 108.72377014 C-10.29648124 108.72991225 -12.08305711 108.73682327 -13.86962891 108.74462891 C-14.68477463 108.73690964 -15.49992035 108.72919037 -16.33976746 108.72123718 C-20.53068643 108.72737905 -20.53068643 108.72737905 -24.28208923 110.38658142 C-25.58842524 112.37752043 -25.58842524 112.37752043 -26.31665039 116.11352539 C-32.91665039 116.11352539 -39.51665039 116.11352539 -46.31665039 116.11352539 C-46.31665039 88.39352539 -46.31665039 60.67352539 -46.31665039 32.11352539 C-43.02707721 34.74518393 -40.24735782 37.18281796 -37.31665039 40.11352539 C-34.15923138 41.6922349 -30.75089706 41.61089905 -27.31665039 41.11352539 C-22.68310337 39.45356911 -20.59143433 37.68083477 -18.45166016 33.22509766 C-18.15960693 32.56952881 -17.86755371 31.91395996 -17.56665039 31.23852539 C-17.24301514 30.55395264 -16.91937988 29.86937988 -16.5859375 29.1640625 C-15.87427704 27.65494091 -15.17081068 26.14193568 -14.47436523 24.62573242 C-12.76299707 20.91211402 -10.99969619 17.22362847 -9.23950195 13.53295898 C-8.33981833 11.6434942 -7.44455806 9.7519162 -6.55395508 7.8581543 C-6.14693359 6.99496582 -5.73991211 6.13177734 -5.32055664 5.24243164 C-4.95776611 4.46971924 -4.59497559 3.69700684 -4.22119141 2.90087891 C-2.82313271 0.13834511 -2.82313271 0.13834511 0 0 Z " fill="#F1FAFE" transform="translate(310.316650390625,377.886474609375)"/>
<path d="M0 0 C6.6 0 13.2 0 20 0 C20.99 1.98 21.98 3.96 23 6 C25.33071576 7.16535788 26.79811693 7.15361919 29.39453125 7.2109375 C30.26787109 7.23929688 31.14121094 7.26765625 32.04101562 7.296875 C33.8767576 7.34862248 35.7127236 7.39299162 37.54882812 7.4296875 C43.50809355 7.63985998 47.34432237 8.19281711 51.60292053 12.69436646 C53.47565054 15.78497743 53.38756609 17.99727468 53.40405273 21.60107422 C53.41091599 22.25526337 53.41777924 22.90945251 53.42485046 23.58346558 C53.44311443 25.74076194 53.43928123 27.89733058 53.43359375 30.0546875 C53.4381565 31.55917598 53.44346236 33.06366238 53.44947815 34.56814575 C53.45840896 37.72048409 53.45598749 40.87256911 53.44604492 44.02490234 C53.43456796 48.05565366 53.45474629 52.08552724 53.48396206 56.11616325 C53.502352 59.22353634 53.5020259 62.33070029 53.49632454 65.43811417 C53.49617159 66.92360793 53.50219373 68.40911612 53.51461601 69.89455795 C53.52957455 71.97696886 53.51881569 74.0577744 53.50170898 76.14013672 C53.50154282 77.32276093 53.50137665 78.50538513 53.50120544 79.72384644 C52.8941362 83.6919838 51.47980952 85.88045243 49 89 C46.04030952 90.47984524 43.36257713 90.16006912 40.05932617 90.19287109 C39.34530136 90.20104858 38.63127655 90.20922607 37.89561462 90.21765137 C35.52807455 90.24250302 33.16059443 90.2590208 30.79296875 90.2734375 C29.98463404 90.27876118 29.17629932 90.28408485 28.34346962 90.28956985 C24.06484551 90.31630064 19.78625057 90.3356756 15.50756836 90.35009766 C11.08878231 90.36674436 6.67074228 90.41152169 2.25223827 90.4624691 C-1.14585728 90.49613005 -4.5437755 90.50767375 -7.94202232 90.51332474 C-9.57073352 90.52004062 -11.19943291 90.53527165 -12.82798195 90.55921555 C-15.10965324 90.59084751 -17.38930946 90.59090812 -19.67114258 90.58349609 C-21.61734245 90.59562637 -21.61734245 90.59562637 -23.6028595 90.60800171 C-27.86516415 89.84515763 -29.3082329 88.31095336 -32 85 C-33.41191744 82.17616512 -33.15861111 79.78406582 -33.19287109 76.62597656 C-33.20104858 75.97207947 -33.20922607 75.31818237 -33.21765137 74.64447021 C-33.24249908 72.47653111 -33.2590215 70.30865755 -33.2734375 68.140625 C-33.27876118 67.39973381 -33.28408485 66.65884262 -33.28956985 65.89550018 C-33.31630146 61.97233617 -33.33567441 58.04920394 -33.35009766 54.12597656 C-33.3634278 50.88219952 -33.39126174 47.63905293 -33.43212891 44.39550781 C-33.48150224 40.47683504 -33.50622451 36.55873341 -33.51332474 32.63976288 C-33.52002927 31.14863605 -33.53523084 29.65752156 -33.55921555 28.16657257 C-33.75843387 15.03090727 -33.75843387 15.03090727 -30.59228516 11.10058594 C-27.19923073 8.35111897 -25.58670827 7.87408816 -21.31640625 7.75390625 C-19.92518555 7.70459961 -19.92518555 7.70459961 -18.50585938 7.65429688 C-16.5476403 7.59322435 -14.5893001 7.53591692 -12.63085938 7.48242188 C-11.70208984 7.44826172 -10.77332031 7.41410156 -9.81640625 7.37890625 C-8.96506104 7.3538501 -8.11371582 7.32879395 -7.23657227 7.30297852 C-4.71750347 7.1279919 -4.71750347 7.1279919 -2 5 C-1.34 3.35 -0.68 1.7 0 0 Z " fill="#60D8F7" transform="translate(160,18)"/>
<path d="M0 0 C0.69276535 -0.0065712 1.3855307 -0.0131424 2.09928894 -0.01991272 C4.40253803 -0.03969593 6.70572164 -0.05132187 9.0090332 -0.0612793 C9.79497171 -0.06535482 10.58091022 -0.06943035 11.39066505 -0.07362938 C15.55373499 -0.09451561 19.71677176 -0.1088039 23.87988281 -0.11816406 C28.17630182 -0.12920936 32.47220014 -0.16357966 36.76843548 -0.20333576 C40.07392828 -0.22951857 43.37929765 -0.23785755 46.68488503 -0.24144554 C48.26808993 -0.24631046 49.85128936 -0.25792184 51.43439293 -0.27648354 C53.6558953 -0.30090251 55.87606 -0.29990531 58.09765625 -0.29296875 C59.36038864 -0.29883499 60.62312103 -0.30470123 61.92411804 -0.31074524 C66.01016298 0.26722559 68.17927142 1.61110742 71.37231445 4.17700195 C72.80632159 7.04501622 72.53142198 9.52901069 72.56518555 12.73461914 C72.57745178 13.74472549 72.57745178 13.74472549 72.58996582 14.77523804 C72.61481605 17.00810864 72.63133648 19.24091559 72.64575195 21.47387695 C72.65107563 22.23683327 72.65639931 22.99978958 72.66188431 23.78586578 C72.6886168 27.8257395 72.70798962 31.86558233 72.72241211 35.90551758 C72.73904278 40.07312206 72.78380581 44.23993309 72.83478355 48.40723801 C72.86848758 51.61579262 72.87999299 54.82415983 72.88563919 58.03287506 C72.89234514 59.56865743 72.9075504 61.10442775 72.93153 62.64003754 C72.96325005 64.79461174 72.96320959 66.94705902 72.95581055 69.10180664 C72.9638974 70.32599304 72.97198425 71.55017944 72.98031616 72.8114624 C72.16767719 77.30975335 70.56169692 78.9484765 67.37231445 82.17700195 C64.48226483 83.62202677 61.95209485 83.33634882 58.72290039 83.36987305 C58.03974258 83.37805054 57.35658478 83.38622803 56.65272522 83.39465332 C54.38738888 83.41950475 52.12211527 83.43602423 49.85668945 83.45043945 C49.08270058 83.45576313 48.3087117 83.46108681 47.51126862 83.46657181 C43.41304006 83.49330473 39.31484196 83.51267748 35.21655273 83.52709961 C30.98841936 83.54373103 26.76106796 83.58849467 22.53322983 83.63947105 C19.27835218 83.67317229 16.0236593 83.68468019 12.76862335 83.69032669 C11.21051318 83.69703333 9.65241491 83.71224034 8.09447479 83.7362175 C5.90877664 83.76793152 3.7251756 83.76789788 1.53930664 83.76049805 C0.29735535 83.7685849 -0.94459595 83.77667175 -2.22418213 83.78500366 C-6.78073347 82.97102152 -8.39633912 81.45341992 -11.62768555 78.17700195 C-12.75742735 74.78777656 -12.78238198 72.15582636 -12.82055664 68.58178711 C-12.82873413 67.91638412 -12.83691162 67.25098114 -12.84533691 66.56541443 C-12.87012908 64.36564016 -12.88668932 62.16593007 -12.90112305 59.96606445 C-12.90644672 59.21380962 -12.9117704 58.46155479 -12.9172554 57.68650436 C-12.94395784 53.70613373 -12.96334352 49.72579417 -12.9777832 45.74536133 C-12.99113235 42.45308712 -13.01900565 39.16143129 -13.05981445 35.86938477 C-13.10912519 31.89121053 -13.13390163 27.91359788 -13.14101028 23.93513107 C-13.14772215 22.42085004 -13.16294283 20.9065815 -13.18690109 19.39247513 C-13.21855495 17.27132169 -13.21859122 15.15233386 -13.21118164 13.03100586 C-13.21926849 11.82537994 -13.22735535 10.61975403 -13.23568726 9.37759399 C-12.45746563 5.28094445 -10.76064003 3.82388729 -7.62768555 1.17700195 C-5.74545601 -0.70522758 -2.50581363 0.01959695 0 0 Z " fill="#60D9F9" transform="translate(27.627685546875,161.822998046875)"/>
<path d="M0 0 C1.02451767 -0.00744736 1.02451767 -0.00744736 2.06973267 -0.01504517 C4.34052524 -0.02970744 6.61124784 -0.03647733 8.88208008 -0.04199219 C10.45811465 -0.04774262 12.0341492 -0.05350037 13.61018372 -0.05926514 C16.92160367 -0.06978827 20.23299926 -0.07562156 23.54443359 -0.07910156 C27.78022526 -0.08457311 32.01569332 -0.1085666 36.25138378 -0.13707352 C39.51055322 -0.1557381 42.76964555 -0.16090764 46.02886391 -0.16243744 C47.58972241 -0.16545855 49.15057973 -0.17346879 50.71138573 -0.18662262 C52.90158663 -0.20375497 55.09100853 -0.20178524 57.28125 -0.1953125 C58.5262175 -0.19895813 59.771185 -0.20260376 61.05387878 -0.20635986 C64.84913977 0.20262416 67.23424572 1.15130442 70.46411133 3.16113281 C72.87514629 6.77768525 72.72229994 8.4524035 72.73876953 12.75634766 C72.74388046 13.42175064 72.74899139 14.08715363 72.7542572 14.77272034 C72.76815791 16.97259516 72.76719588 19.17215678 72.76489258 21.37207031 C72.76877978 22.9028027 72.7731145 24.43353401 72.77787781 25.96426392 C72.78534142 29.17380264 72.78504814 32.38323137 72.77978516 35.59277344 C72.77399585 39.70084567 72.79090743 43.80846627 72.81412983 47.91646385 C72.82888152 51.07867047 72.82973684 54.24076876 72.8266201 57.40300369 C72.82713278 58.91723143 72.83236049 60.43146531 72.84243202 61.94565964 C72.85480492 64.06644518 72.84800022 66.18635676 72.83642578 68.30712891 C72.83705521 69.51275482 72.83768463 70.71838074 72.83833313 71.96054077 C72.29476292 76.60951222 70.86465738 79.05238732 67.20774841 81.9473877 C63.82265494 83.44490378 61.26599694 83.55540157 57.56591797 83.58105469 C56.5551545 83.593759 56.5551545 83.593759 55.52397156 83.60671997 C53.30720902 83.63002643 51.09114312 83.63111376 48.87426758 83.62988281 C47.32636744 83.63698806 45.77846993 83.6446876 44.23057556 83.6529541 C40.9900683 83.66638411 37.74980461 83.66797434 34.50927734 83.66210938 C30.36519844 83.65621322 26.2222911 83.68680659 22.07843876 83.72722626 C18.88270315 83.75312833 15.68724876 83.75597849 12.49142265 83.75233459 C10.96404513 83.75402339 9.43665428 83.76364288 7.90937996 83.78147888 C5.76936471 83.8037223 3.6317093 83.79394421 1.49169922 83.77636719 C0.27656143 83.77842163 -0.93857635 83.78047607 -2.1905365 83.78259277 C-6.6643502 82.95150058 -8.31788542 81.33408151 -11.53588867 78.16113281 C-12.97179288 75.28932439 -12.69503685 72.79730489 -12.72875977 69.58764648 C-12.73693726 68.91263596 -12.74511475 68.23762543 -12.75354004 67.54216003 C-12.7783869 65.30448291 -12.79490838 63.0668692 -12.80932617 60.82910156 C-12.81464985 60.0648971 -12.81997353 59.30069263 -12.82545853 58.51333046 C-12.85218749 54.46812569 -12.87156284 50.42295175 -12.88598633 46.37768555 C-12.90263089 42.20101614 -12.9474066 38.02513632 -12.99835777 33.84876537 C-13.03202752 30.63596194 -13.04356336 27.42334597 -13.04921341 24.21038246 C-13.0559271 22.67098267 -13.07115252 21.13159526 -13.09510422 19.59236717 C-13.12675544 17.43519295 -13.12679432 15.28014855 -13.11938477 13.12280273 C-13.12747162 11.89639572 -13.13555847 10.66998871 -13.14389038 9.40641785 C-12.36997324 5.2755385 -10.69787006 3.82411837 -7.53588867 1.16113281 C-5.66451377 -0.71024209 -2.4951094 0.01372825 0 0 Z " fill="#61DAFA" transform="translate(424.535888671875,161.8388671875)"/>
<path d="M0 0 C0.6847641 -0.0049649 1.3695282 -0.00992981 2.07504272 -0.01504517 C4.34520466 -0.02967489 6.61529668 -0.03647066 8.88549805 -0.04199219 C10.46249901 -0.04774369 12.03949994 -0.05350142 13.61650085 -0.05926514 C16.92614061 -0.06977792 20.23575605 -0.07561853 23.54541016 -0.07910156 C27.78239203 -0.08458199 32.01905185 -0.10859896 36.25593281 -0.13707352 C39.51505972 -0.15571712 42.77410941 -0.16090644 46.03328514 -0.16243744 C47.59497015 -0.16546143 49.15665387 -0.17348147 50.71828651 -0.18662262 C52.90618838 -0.20371705 55.09330807 -0.20179487 57.28125 -0.1953125 C58.52542191 -0.19895813 59.76959381 -0.20260376 61.0514679 -0.20635986 C65.53433864 0.29540598 67.95933636 1.79674894 71.12295532 4.93507385 C72.78163155 7.98213481 72.71592115 10.31577069 72.72290039 13.77807617 C72.72815735 14.43387161 72.73341431 15.08966705 72.73883057 15.76533508 C72.75200558 17.9274598 72.74330102 20.08884469 72.7331543 22.25097656 C72.73517601 23.75785971 72.73808826 25.2647419 72.74185181 26.7716217 C72.74627195 29.92816493 72.73985519 33.08445324 72.72583008 36.2409668 C72.70875279 40.28066057 72.71857166 44.31975572 72.73654747 48.35942745 C72.74740637 51.47103862 72.74392912 54.58250872 72.73616409 57.69412422 C72.73416713 59.18322381 72.73660364 60.67233634 72.74360275 62.16142082 C72.75125063 64.24622202 72.73956738 66.33006481 72.72290039 68.41479492 C72.72051361 69.59963974 72.71812683 70.78448456 72.71566772 72.00523376 C72.29258779 75.51014072 71.44970795 77.35932544 69.3347168 80.16113281 C65.62638116 82.63335657 63.71096606 82.43106818 59.28051758 82.4675293 C58.56634674 82.47585281 57.8521759 82.48417633 57.11636353 82.49275208 C54.75419674 82.51685776 52.39230606 82.52562478 50.0300293 82.53222656 C48.38719601 82.54119258 46.74436357 82.55031442 45.10153198 82.55958557 C41.65661637 82.57607972 38.21179799 82.58377642 34.7668457 82.58666992 C30.35588665 82.59205385 25.94584335 82.62973147 21.5351429 82.67541409 C18.14131344 82.70518033 14.7477046 82.71239337 11.35375595 82.71339607 C9.72785117 82.71759939 8.10194579 82.73003832 6.47616959 82.75091362 C4.19933312 82.77782092 1.92462021 82.77300681 -0.35229492 82.76049805 C-1.6467453 82.7655687 -2.94119568 82.77063934 -4.27487183 82.77586365 C-8.52849762 82.0046195 -9.97627243 80.46587096 -12.6652832 77.16113281 C-14.07720064 74.33729794 -13.82389431 71.94519863 -13.8581543 68.78710938 C-13.86633179 68.13321228 -13.87450928 67.47931519 -13.88293457 66.80560303 C-13.90778228 64.63766392 -13.9243047 62.46979037 -13.9387207 60.30175781 C-13.94404438 59.56086662 -13.94936806 58.81997543 -13.95485306 58.056633 C-13.98158466 54.13346898 -14.00095762 50.21033675 -14.01538086 46.28710938 C-14.028711 43.04333233 -14.05654494 39.80018575 -14.09741211 36.55664062 C-14.14678544 32.63796785 -14.17150772 28.71986622 -14.17860794 24.80089569 C-14.18531247 23.30976886 -14.20051404 21.81865438 -14.22449875 20.32770538 C-14.42371707 7.19204008 -14.42371707 7.19204008 -11.25756836 3.26171875 C-7.24366197 0.00916172 -5.14012968 0.0282632 0 0 Z " fill="#60D8F8" transform="translate(312.665283203125,25.8388671875)"/>
<path d="M0 0 C2.70894767 -0.08144943 5.41541263 -0.14070614 8.125 -0.1875 C8.88554687 -0.21263672 9.64609375 -0.23777344 10.4296875 -0.26367188 C15.37336847 -0.32759878 18.73436658 0.21891074 23 3 C25.41103496 6.61655244 25.25818862 8.29127069 25.2746582 12.59521484 C25.27976913 13.26061783 25.28488007 13.92602081 25.29014587 14.61158752 C25.30404659 16.81146235 25.30308456 19.01102397 25.30078125 21.2109375 C25.30466845 22.74166989 25.30900317 24.27240119 25.31376648 25.8031311 C25.32123009 29.01266982 25.32093681 32.22209856 25.31567383 35.43164062 C25.30988452 39.53971286 25.3267961 43.64733345 25.3500185 47.75533104 C25.3647702 50.91753766 25.36562551 54.07963594 25.36250877 57.24187088 C25.36302145 58.75609861 25.36824916 60.2703325 25.37832069 61.78452682 C25.3906936 63.90531237 25.38388889 66.02522395 25.37231445 68.14599609 C25.37294388 69.35162201 25.3735733 70.55724792 25.3742218 71.79940796 C24.83074392 76.44758978 23.39729254 78.88782589 19.74958801 81.79121399 C16.32049027 83.29872907 13.75073366 83.36081478 10.0065918 83.34057617 C8.98137169 83.34123329 8.98137169 83.34123329 7.93544006 83.34190369 C5.6897363 83.3398236 3.44479113 83.31653077 1.19921875 83.29296875 C-0.36304822 83.28736999 -1.92532047 83.28310121 -3.4875946 83.28010559 C-7.58943349 83.26867879 -11.69095116 83.23923055 -15.79266357 83.20599365 C-19.98217423 83.17524588 -24.17173704 83.16159022 -28.36132812 83.14648438 C-36.57436578 83.11435851 -44.78714287 83.06318868 -53 83 C-53 82.67 -53 82.34 -53 82 C-35.51 81.67 -18.02 81.34 0 81 C1.27385127 77.1784462 1.12353188 73.5931553 1.09765625 69.61328125 C1.0962413 68.79627243 1.09482635 67.97926361 1.09336853 67.13749695 C1.08777294 64.52912732 1.07522129 61.92084366 1.0625 59.3125 C1.05748443 57.54362103 1.05292162 55.77474072 1.04882812 54.00585938 C1.03780496 49.67053981 1.02054338 45.33528448 1 41 C0.41508789 41.59538574 -0.16982422 42.19077148 -0.77246094 42.80419922 C-2.95264291 45.01854113 -5.13735138 47.22828867 -7.32519531 49.43505859 C-8.73334701 50.85817009 -10.13623955 52.2864792 -11.5390625 53.71484375 C-12.42851562 54.61074219 -13.31796875 55.50664062 -14.234375 56.4296875 C-15.05131836 57.25710449 -15.86826172 58.08452148 -16.70996094 58.93701172 C-19.70087459 61.63138489 -21.69217274 62.95135406 -25.73046875 63.1015625 C-30.71128496 61.42343804 -33.68503057 58.07838553 -37.3125 54.375 C-38.04017578 53.67503906 -38.76785156 52.97507813 -39.51757812 52.25390625 C-42.84237997 48.91361138 -44.78112884 46.75947521 -46.10546875 42.1640625 C-46 39 -46 39 -44 36 C-41 34 -41 34 -37.6875 33.6875 C-32.49929284 35.53415 -29.57783489 38.92033892 -26 43 C-22.35215762 41.47225779 -20.1049595 39.29678769 -17.375 36.46484375 C-16.50359375 35.57345703 -15.6321875 34.68207031 -14.734375 33.76367188 C-12.9095053 31.87753869 -11.08659086 29.9895118 -9.265625 28.09960938 C-8.39421875 27.20951172 -7.5228125 26.31941406 -6.625 25.40234375 C-5.83351563 24.58241943 -5.04203125 23.76249512 -4.2265625 22.91772461 C-2.03848134 21.03314375 -0.82016357 20.37062937 2 20 C1.85879984 17.41633755 1.71221667 14.83317115 1.5625 12.25 C1.52318359 11.52039063 1.48386719 10.79078125 1.44335938 10.0390625 C1.23852902 6.5727027 0.9147998 3.34666974 0 0 Z " fill="#04CCF6" transform="translate(472,162)"/>
<path d="M0 0 C2.87602455 -0.10852923 5.74790832 -0.1875515 8.625 -0.25 C9.43324219 -0.28351563 10.24148437 -0.31703125 11.07421875 -0.3515625 C16.55800755 -0.4407298 19.66486302 0.30761203 24 4 C25.43400713 6.86801427 25.15910753 9.35200874 25.19287109 12.55761719 C25.20513733 13.56772354 25.20513733 13.56772354 25.21765137 14.59823608 C25.24250159 16.83110669 25.25902202 19.06391364 25.2734375 21.296875 C25.27876118 22.05983131 25.28408485 22.82278763 25.28956985 23.60886383 C25.31630235 27.64873754 25.33567516 31.68858037 25.35009766 35.72851562 C25.36672832 39.8961201 25.41149136 44.06293114 25.4624691 48.23023605 C25.49617313 51.43879067 25.50767854 54.64715788 25.51332474 57.85587311 C25.52003069 59.39165548 25.53523594 60.92742579 25.55921555 62.46303558 C25.5909356 64.61760978 25.59089514 66.77005707 25.58349609 68.92480469 C25.59158295 70.14899109 25.5996698 71.37317749 25.60800171 72.63446045 C24.79536274 77.1327514 23.18938246 78.77147455 20 82 C17.07917545 83.46041228 14.51698631 83.11928796 11.25537109 83.11352539 C10.21617775 83.11374443 10.21617775 83.11374443 9.1559906 83.1139679 C6.86177459 83.11327018 4.56763936 83.10548442 2.2734375 83.09765625 C0.68445887 83.09579157 -0.90452034 83.0943679 -2.49349976 83.09336853 C-6.67909325 83.08954731 -10.86465213 83.07972039 -15.05023193 83.06866455 C-19.31994153 83.05844194 -23.5896567 83.05386909 -27.859375 83.04882812 C-36.23959923 83.03809778 -44.61979531 83.02102608 -53 83 C-53 82.67 -53 82.34 -53 82 C-35.51 81.67 -18.02 81.34 0 81 C2.21657294 76.56685411 2.25818442 73.31928506 2.1953125 68.515625 C2.19106766 67.29223419 2.19106766 67.29223419 2.18673706 66.04412842 C2.17556558 63.44593472 2.15046675 60.84808905 2.125 58.25 C2.11496627 56.48568207 2.10584111 54.72135872 2.09765625 52.95703125 C2.07563619 48.63788727 2.04112733 44.31900259 2 40 C1.37955811 40.62567871 0.75911621 41.25135742 0.11987305 41.89599609 C-2.18719147 44.22012119 -4.49650473 46.54196405 -6.80737305 48.86230469 C-7.80632901 49.86628378 -8.80438487 50.87115932 -9.80151367 51.87695312 C-11.23639993 53.32399338 -12.67451134 54.76775991 -14.11328125 56.2109375 C-14.97735596 57.08024902 -15.84143066 57.94956055 -16.73168945 58.84521484 C-19.63858474 61.60662457 -21.11276281 62.97505323 -25.1953125 63.08984375 C-30.5089845 61.56775495 -33.1680883 58.5294816 -36.875 54.5625 C-37.55046875 53.86833984 -38.2259375 53.17417969 -38.921875 52.45898438 C-44.85494322 46.30551101 -44.85494322 46.30551101 -45.375 41.625 C-45 38 -45 38 -42.875 35.5 C-40 34 -40 34 -37.1875 33.75 C-33.00457563 35.3903625 -30.8306078 38.01588091 -27.9296875 41.3828125 C-26.18858902 43.2145665 -26.18858902 43.2145665 -24.19799805 42.90795898 C-21.04239619 41.60442868 -19.26367144 39.54439026 -16.90234375 37.08984375 C-16.42680557 36.60294571 -15.9512674 36.11604767 -15.46131897 35.61439514 C-13.94594997 34.06244564 -12.44066718 32.50126519 -10.9375 30.9375 C-8.95519303 28.87555946 -6.96329291 26.82362898 -4.96484375 24.77734375 C-3.64407837 23.40437134 -3.64407837 23.40437134 -2.29663086 22.00366211 C0 20 0 20 3 20 C2.88501733 17.79112243 2.75756495 15.58289213 2.625 13.375 C2.52058594 11.53035156 2.52058594 11.53035156 2.4140625 9.6484375 C2.0185513 6.16346145 1.23738151 3.26950399 0 0 Z " fill="#02CCF6" transform="translate(75,162)"/>
<path d="M0 0 C2.89640118 -0.08120751 5.79050912 -0.14059421 8.6875 -0.1875 C9.50412109 -0.21263672 10.32074219 -0.23777344 11.16210938 -0.26367188 C15.94701082 -0.32178809 19.15623234 -0.17342599 23 3 C26.24543731 6.42262417 26.37882732 8.97542466 26.38818359 13.61694336 C26.39344055 14.2727388 26.39869751 14.92853424 26.40411377 15.60420227 C26.41728879 17.76632698 26.40858422 19.92771188 26.3984375 22.08984375 C26.40045921 23.5967269 26.40337147 25.10360909 26.40713501 26.61048889 C26.41155516 29.76703211 26.4051384 32.92332043 26.39111328 36.07983398 C26.37403599 40.11952775 26.38385486 44.15862291 26.40183067 48.19829464 C26.41268957 51.30990581 26.40921232 54.42137591 26.4014473 57.53299141 C26.39945033 59.022091 26.40188684 60.51120353 26.40888596 62.00028801 C26.41653383 64.08508921 26.40485058 66.168932 26.38818359 68.25366211 C26.38579681 69.43850693 26.38341003 70.62335175 26.38095093 71.84410095 C25.957871 75.3490079 25.11499115 77.19819263 23 80 C19.84685215 82.10209857 19.13896919 82.2434761 15.55078125 82.1953125 C14.27944336 82.18564453 14.27944336 82.18564453 12.98242188 82.17578125 C12.10134766 82.15902344 11.22027344 82.14226562 10.3125 82.125 C9.41982422 82.11597656 8.52714844 82.10695313 7.60742188 82.09765625 C5.40467686 82.07409748 3.20247412 82.04120329 1 82 C1.16298584 81.35200439 1.32597168 80.70400879 1.49389648 80.03637695 C2.14101608 76.15397157 2.12349457 72.34042704 2.09765625 68.41796875 C2.09553383 67.19670036 2.09553383 67.19670036 2.09336853 65.95075989 C2.08779317 63.36296844 2.07524524 60.77526508 2.0625 58.1875 C2.05748181 56.42773563 2.05291946 54.66796989 2.04882812 52.90820312 C2.03783181 48.60543506 2.02058421 44.30273244 2 40 C1.37544922 40.66644531 0.75089844 41.33289063 0.10742188 42.01953125 C-2.23219745 44.49596029 -4.58916032 46.95296569 -6.95996094 49.39941406 C-7.97979332 50.45934131 -8.99231467 51.526356 -9.99707031 52.60058594 C-19.42325979 62.66140995 -19.42325979 62.66140995 -24.15625 63.19140625 C-29.63738093 62.31403097 -33.3439202 57.76782971 -37 53.9375 C-37.77472656 53.18533203 -38.54945313 52.43316406 -39.34765625 51.65820312 C-44.82624218 46.0781619 -44.82624218 46.0781619 -45.62890625 41.09765625 C-45 38 -45 38 -42.9375 35.5 C-40 34 -40 34 -36.6875 33.75 C-31.46616763 35.51994318 -28.57813521 38.91999648 -25 43 C-21.23844242 41.44510006 -18.93071956 39.1194919 -16.12109375 36.2109375 C-14.73954102 34.79941406 -14.73954102 34.79941406 -13.33007812 33.359375 C-11.87710341 31.86277407 -10.42668829 30.36378839 -8.97875977 28.86230469 C-7.57433921 27.40973393 -6.16034949 25.96643424 -4.74609375 24.5234375 C-3.90747803 23.65638184 -3.0688623 22.78932617 -2.20483398 21.89599609 C0 20 0 20 3 20 C2.88543872 17.60325733 2.75871281 15.20818782 2.625 12.8125 C2.5940625 12.13896484 2.563125 11.46542969 2.53125 10.77148438 C2.29896078 6.80321025 1.71612524 3.59270121 0 0 Z " fill="#01CBF5" transform="translate(359,26)"/>
<path d="M0 0 C0.95261719 0.49371094 1.90523438 0.98742187 2.88671875 1.49609375 C4.15348171 2.14355037 5.42041801 2.79066794 6.6875 3.4375 C7.31333984 3.76298828 7.93917969 4.08847656 8.58398438 4.42382812 C14.60845737 7.48337724 19.62456966 8.12497185 26.3125 8.5625 C27.56675781 8.64628906 28.82101562 8.73007813 30.11328125 8.81640625 C31.06589844 8.87699219 32.01851563 8.93757812 33 9 C33.09314049 16.78060981 33.1639863 24.56108627 33.20724869 32.3421154 C33.22802442 35.95614345 33.25615513 39.56978695 33.30175781 43.18359375 C33.34557814 46.67847537 33.36921218 50.17298976 33.37950897 53.66812515 C33.39037481 55.63441341 33.42154181 57.60055623 33.45318604 59.56661987 C33.45584015 70.28863407 31.29883411 78.4144627 23.8671875 86.30859375 C18.38732429 91.27257026 12.87989008 93.13822161 5.578125 93.09765625 C4.04091797 93.09282227 4.04091797 93.09282227 2.47265625 93.08789062 C1.40917969 93.07951172 0.34570312 93.07113281 -0.75 93.0625 C-1.82894531 93.05798828 -2.90789062 93.05347656 -4.01953125 93.04882812 C-6.67974383 93.03705727 -9.33984365 93.02061399 -12 93 C-11.59370361 92.47108154 -11.18740723 91.94216309 -10.76879883 91.3972168 C-10.23279053 90.69250244 -9.69678223 89.98778809 -9.14453125 89.26171875 C-8.61448486 88.56780029 -8.08443848 87.87388184 -7.53833008 87.15893555 C-2.42689302 79.98540152 -0.90220072 73.59380139 -0.79467773 64.82299805 C-0.77982834 63.76851723 -0.77982834 63.76851723 -0.76467896 62.69273376 C-0.7332367 60.38242901 -0.70837532 58.07210374 -0.68359375 55.76171875 C-0.66300928 54.15460188 -0.64201242 52.54749024 -0.62062073 50.94038391 C-0.56555421 46.72036998 -0.51607724 42.50030844 -0.46777344 38.2802124 C-0.41744549 33.96996854 -0.3618185 29.6597934 -0.30664062 25.34960938 C-0.19924779 16.89979777 -0.09776129 8.4499285 0 0 Z " fill="#FBAD9C" transform="translate(284,229)"/>
<path d="M0 0 C2.89640118 -0.08120751 5.79050912 -0.14059421 8.6875 -0.1875 C9.50412109 -0.21263672 10.32074219 -0.23777344 11.16210938 -0.26367188 C15.94701082 -0.32178809 19.15623234 -0.17342599 23 3 C26.23687234 6.41769787 26.38285591 8.96768156 26.40405273 13.60107422 C26.41091599 14.25526337 26.41777924 14.90945251 26.42485046 15.58346558 C26.44311443 17.74076194 26.43928123 19.89733058 26.43359375 22.0546875 C26.4381565 23.55917598 26.44346236 25.06366238 26.44947815 26.56814575 C26.45840896 29.72048409 26.45598749 32.87256911 26.44604492 36.02490234 C26.43456796 40.05565366 26.45474629 44.08552724 26.48396206 48.11616325 C26.502352 51.22353634 26.5020259 54.33070029 26.49632454 57.43811417 C26.49617159 58.92360793 26.50219373 60.40911612 26.51461601 61.89455795 C26.52957455 63.97696886 26.51881569 66.0577744 26.50170898 68.14013672 C26.50154282 69.32276093 26.50137665 70.50538513 26.50120544 71.72384644 C25.8941362 75.6919838 24.47980952 77.88045243 22 81 C19.65147472 82.17426264 18.26225935 82.11508173 15.6484375 82.09765625 C14.37226563 82.09282227 14.37226563 82.09282227 13.0703125 82.08789062 C12.18085938 82.07951172 11.29140625 82.07113281 10.375 82.0625 C9.4778125 82.05798828 8.580625 82.05347656 7.65625 82.04882812 C5.43743352 82.03702591 3.21874982 82.02056155 1 82 C1.16265854 81.42131165 1.32531708 80.84262329 1.49290466 80.24639893 C2.30825962 76.6344302 2.12111581 72.98110114 2.09765625 69.296875 C2.0962413 68.45908508 2.09482635 67.62129517 2.09336853 66.75811768 C2.08778197 64.08870843 2.07523194 61.4193838 2.0625 58.75 C2.05748326 56.93750121 2.05292066 55.12500111 2.04882812 53.3125 C2.03781694 48.87496752 2.02056155 44.43749809 2 40 C1.37544922 40.66644531 0.75089844 41.33289063 0.10742188 42.01953125 C-2.23219745 44.49596029 -4.58916032 46.95296569 -6.95996094 49.39941406 C-7.97979332 50.45934131 -8.99231467 51.526356 -9.99707031 52.60058594 C-19.42513673 62.66341326 -19.42513673 62.66341326 -24.19140625 63.16015625 C-29.62243113 61.50578252 -32.59288331 58.50426602 -36.4375 54.4375 C-37.15615234 53.73302734 -37.87480469 53.02855469 -38.61523438 52.30273438 C-41.89104502 48.94649778 -43.79078993 46.73186299 -45.09765625 42.16015625 C-45 39 -45 39 -43 36 C-40 34 -40 34 -36.6875 33.6875 C-31.49929284 35.53415 -28.57783489 38.92033892 -25 43 C-21.23844242 41.44510006 -18.93071956 39.1194919 -16.12109375 36.2109375 C-14.73954102 34.79941406 -14.73954102 34.79941406 -13.33007812 33.359375 C-11.87710341 31.86277407 -10.42668829 30.36378839 -8.97875977 28.86230469 C-7.57433921 27.40973393 -6.16034949 25.96643424 -4.74609375 24.5234375 C-3.90747803 23.65638184 -3.0688623 22.78932617 -2.20483398 21.89599609 C0 20 0 20 3 20 C2.88501733 17.79112243 2.75756495 15.58289213 2.625 13.375 C2.52058594 11.53035156 2.52058594 11.53035156 2.4140625 9.6484375 C2.0185513 6.16346145 1.23738151 3.26950399 0 0 Z " fill="#01CCF6" transform="translate(187,26)"/>
<path d="M0 0 C14.49926181 -0.11689361 28.99845036 -0.20468485 43.49808693 -0.25906086 C50.23081862 -0.28482323 56.96325723 -0.31993531 63.69580078 -0.37719727 C70.19263993 -0.43242808 76.68928891 -0.46141954 83.18635178 -0.47438622 C85.66550871 -0.48362727 88.14464892 -0.50167283 90.6236763 -0.52865028 C94.09535021 -0.56492867 97.5657648 -0.56994558 101.03759766 -0.56762695 C102.06330872 -0.58560333 103.08901978 -0.60357971 104.14581299 -0.62210083 C108.5644374 -0.59015305 111.99762241 -0.52215346 115.63960266 2.159729 C118.36742909 5.44212819 118.74602765 6.80016541 118.72875977 11.01196289 C118.73798965 12.19991959 118.74721954 13.38787628 118.75672913 14.61183167 C118.73517258 15.88590378 118.71361603 17.15997589 118.69140625 18.47265625 C118.69003159 19.78785751 118.68865692 21.10305878 118.6872406 22.45811462 C118.68255833 25.23664183 118.65779064 28.01400257 118.61743164 30.79223633 C118.56641037 34.34895895 118.55499057 37.90440386 118.55726719 41.46144962 C118.55625428 44.86118892 118.52973564 48.26051118 118.50390625 51.66015625 C118.49889854 53.57430077 118.49889854 53.57430077 118.49378967 55.52711487 C118.46508034 57.30432167 118.46508034 57.30432167 118.43579102 59.11743164 C118.42435562 60.15936172 118.41292023 61.20129181 118.40113831 62.27479553 C117.94419494 65.37912161 117.14704772 66.74611745 115 69 C107.4090551 72.43644127 98.08215207 73.57369588 90.0859375 71.09765625 C87.67595179 70.143845 85.33064016 69.13245856 83 68 C83.66 67.67 84.32 67.34 85 67 C85.02319672 59.13294711 85.04095244 51.26590227 85.05181217 43.39882374 C85.05702497 39.74560651 85.06409347 36.09241272 85.07543945 32.43920898 C85.08632536 28.91196653 85.09228892 25.38474659 85.09487724 21.85748863 C85.09761703 19.86061739 85.10542001 17.86375517 85.11329651 15.86689758 C85.11340981 14.03556526 85.11340981 14.03556526 85.11352539 12.16723633 C85.115746 11.09468094 85.11796661 10.02212555 85.12025452 8.91706848 C85.06042404 5.62802638 85.06042404 5.62802638 84 1 C56.28 1 28.56 1 0 1 C0 0.67 0 0.34 0 0 Z " fill="#A5674E" transform="translate(214,152)"/>
<path d="M0 0 C7.76785714 3.61607143 7.76785714 3.61607143 11 6.8125 C13.88760151 9.3377909 13.88760151 9.3377909 17.75 9.1875 C22.33699509 8.3142067 25.9106602 5.8005947 29.703125 3.1796875 C32 2 32 2 34.0234375 1.89453125 C37.22834639 3.68700006 38.64203464 6.70004416 40.375 9.8125 C40.75527344 10.44220703 41.13554687 11.07191406 41.52734375 11.72070312 C44.12698007 16.29165038 44.12698007 16.29165038 43.6015625 19.22265625 C41.37207853 21.69683969 38.91830175 23.03256131 36 24.625 C31.7098953 26.92654724 31.7098953 26.92654724 28 30 C27.79853598 33.693507 27.82646811 36.47940432 29 40 C29.0962762 42.01896864 29.12981825 44.0412429 29.125 46.0625 C29.12371094 47.21878906 29.12242187 48.37507813 29.12109375 49.56640625 C29.01333164 52.62198339 28.66343614 55.48573778 28.1875 58.5 C27.8119434 62.02795597 27.77497732 62.65858628 29.8125 65.75 C33.38348912 68.2706982 37.05734807 70.47221714 40.890625 72.5703125 C43 74 43 74 44 77 C43.28735352 78.7175293 43.28735352 78.7175293 42.12890625 80.57421875 C41.71962891 81.24130859 41.31035156 81.90839844 40.88867188 82.59570312 C40.45103516 83.28599609 40.01339844 83.97628906 39.5625 84.6875 C39.12873047 85.38939453 38.69496094 86.09128906 38.24804688 86.81445312 C37.17449413 88.54865372 36.08841346 90.27508744 35 92 C30.89322221 91.42178941 28.13824537 90.03932021 24.625 87.875 C21.12814737 85.93438741 19.29148606 85.0194324 15.25 84.75 C11.60631599 86.15141693 9.42101183 87.89942501 6.67578125 90.625 C4.79596893 92.1674101 3.37221814 92.5865415 1 93 C1.41443527 91.72843723 1.83175298 90.4578141 2.25 89.1875 C2.52328125 88.35734375 2.7965625 87.5271875 3.078125 86.671875 C3.67579729 84.93963837 4.30936743 83.21921553 4.984375 81.515625 C13.76109723 59.23625317 13.81289292 32.9785968 4.62158203 10.77685547 C3.46966832 8.15811137 2.23506613 5.58033817 1 3 C0.67 2.01 0.34 1.02 0 0 Z " fill="#658B96" transform="translate(425,336)"/>
<path d="M0 0 C6.54678946 6.72372972 9.69197023 14.10881344 9.59375 23.390625 C8.89805678 30.77270303 5.66085058 37.26435389 0.3125 42.375 C-8.46323805 48.07071711 -16.57899971 49.84315038 -27.0390625 47.94921875 C-34.04421143 45.67463852 -39.79373053 40.65525026 -43.125 34.125 C-46.34016608 26.91610743 -47.11270742 19.20338962 -44.8515625 11.54296875 C-41.53046696 4.28782379 -36.30597107 -1.23319673 -29 -4.5625 C-18.35010046 -7.91679907 -9.18391585 -5.5530654 0 0 Z M-27.6875 13.375 C-30.07371552 16.83886124 -30.69899219 18.71994544 -30.625 22.9375 C-29.43335591 27.30686165 -27.74408694 30.12466412 -23.82421875 32.5078125 C-20.01473516 34.05389176 -16.55175041 33.61636542 -12.6875 32.375 C-9.3473777 30.0212682 -7.24796208 27.32327294 -6.11328125 23.37890625 C-5.76008924 19.35251739 -6.75487399 16.68397512 -9.125 13.4375 C-12.25937047 10.20680136 -15.04700338 9.25957059 -19.5078125 9.109375 C-23.12154353 9.54975799 -25.05306825 10.92874194 -27.6875 13.375 Z " fill="#010101" transform="translate(418.6875,361.625)"/>
<path d="M0 0 C2.53325807 1.00949382 4.70853445 2.31169582 7.015625 3.765625 C10.29513219 5.82862257 13.44142585 7.48144034 17.078125 8.828125 C17.13419922 10.34792969 17.13419922 10.34792969 17.19140625 11.8984375 C17.25710888 13.25003439 17.32355471 14.60159529 17.390625 15.953125 C17.42446289 16.95085937 17.42446289 16.95085937 17.45898438 17.96875 C17.70894963 22.60446928 18.7650169 25.82739211 21.078125 29.828125 C23.51611276 34.44747023 24.0600276 39.7105818 23.078125 44.828125 C21.48388672 46.95385742 21.48388672 46.95385742 19.078125 48.828125 C15.87011719 49.28222656 15.87011719 49.28222656 12.125 49.21875 C11.46477844 49.21309021 10.80455688 49.20743042 10.12432861 49.20159912 C8.02484237 49.1792873 5.9270913 49.12910814 3.828125 49.078125 C2.4010664 49.05805294 0.97398092 49.03980339 -0.453125 49.0234375 C-3.94326793 48.97944193 -7.43240199 48.91045376 -10.921875 48.828125 C-10.591875 47.838125 -10.261875 46.848125 -9.921875 45.828125 C-9.47989564 38.73945601 -10.65323147 31.92372973 -11.83837891 24.94433594 C-12.17419367 22.9392809 -12.48365888 20.93116758 -12.79296875 18.921875 C-13.11201172 17.02308594 -13.11201172 17.02308594 -13.4375 15.0859375 C-13.62602539 13.9323877 -13.81455078 12.77883789 -14.00878906 11.59033203 C-14.64953021 8.69887717 -14.64953021 8.69887717 -17.01464844 7.43701172 C-17.6440332 7.2360791 -18.27341797 7.03514648 -18.921875 6.828125 C-18.365 6.74175781 -17.808125 6.65539062 -17.234375 6.56640625 C-11.86797936 5.57833678 -8.12954215 4.01622109 -3.74609375 0.75390625 C-1.921875 -0.171875 -1.921875 -0.171875 0 0 Z " fill="#DCEAEF" transform="translate(357.921875,437.171875)"/>
<path d="M0 0 C11.22 0 22.44 0 34 0 C35.75694559 26.82270261 35.75694559 26.82270261 32.60839844 32.51660156 C28.80073915 36.72705456 24.34560088 39.22182603 19 41 C16.46875 40.921875 16.46875 40.921875 14 40 C12.82824219 39.59394531 11.65648437 39.18789063 10.44921875 38.76953125 C5.98007043 36.63830687 2.40936081 34.44490233 0 30 C-1.86331621 20.07887006 -0.60858453 9.99817449 0 0 Z " fill="#FBAD9B" transform="translate(239,337)"/>
<path d="M0 0 C3.15378834 2.07486075 3.86353403 3.4751309 4.8125 7.125 C3.91802899 11.39093864 2.9899277 12.47006294 0.09375 15.5859375 C-0.72182373 16.46491699 -1.53739746 17.34389648 -2.37768555 18.24951172 C-6.63848764 22.71857385 -10.94797892 27.13220961 -15.3125 31.5 C-16.19228516 32.39203125 -17.07207031 33.2840625 -17.97851562 34.203125 C-18.82736328 35.05390625 -19.67621094 35.9046875 -20.55078125 36.78125 C-21.31044189 37.54501953 -22.07010254 38.30878906 -22.8527832 39.09570312 C-25.77969017 41.6914819 -27.80265473 42.95546355 -31.73046875 43.1015625 C-36.71128496 41.42343804 -39.68503057 38.07838553 -43.3125 34.375 C-44.04017578 33.67503906 -44.76785156 32.97507813 -45.51757812 32.25390625 C-48.84237997 28.91361138 -50.78112884 26.75947521 -52.10546875 22.1640625 C-52 19 -52 19 -50 16 C-47 14 -47 14 -43.6875 13.6875 C-38.49929284 15.53415 -35.57783489 18.92033892 -32 23 C-28.34968275 21.46728453 -26.06060249 19.27846123 -23.3046875 16.46484375 C-21.98404297 15.12776367 -21.98404297 15.12776367 -20.63671875 13.76367188 C-19.72535156 12.83103516 -18.81398438 11.89839844 -17.875 10.9375 C-16.06210385 9.09027833 -14.24710642 7.24511579 -12.4296875 5.40234375 C-11.22675049 4.17245728 -11.22675049 4.17245728 -9.99951172 2.91772461 C-6.7289686 -0.21904171 -4.48346924 -0.44834692 0 0 Z " fill="#020607" transform="translate(478,182)"/>
<path d="M0 0 C4.02591157 0.6146772 5.43278328 2.23462355 7.85107422 5.43530273 C8.35659964 8.68235693 8.15199811 10.001098 6.26464844 12.72436523 C5.52746582 13.49522461 4.7902832 14.26608398 4.03076172 15.06030273 C3.20801758 15.92913086 2.38527344 16.79795898 1.53759766 17.69311523 C0.20776855 19.05049805 0.20776855 19.05049805 -1.14892578 20.43530273 C-2.02774414 21.34022461 -2.9065625 22.24514648 -3.81201172 23.17749023 C-6.53028785 25.94975885 -9.27271049 28.69574514 -12.02392578 31.43530273 C-12.96940475 32.38435568 -13.91471791 33.33357383 -14.85986328 34.28295898 C-16.20564453 35.62680664 -16.20564453 35.62680664 -17.57861328 36.99780273 C-18.38540527 37.8034668 -19.19219727 38.60913086 -20.0234375 39.43920898 C-22.87911162 42.12103664 -24.35403393 43.41295247 -28.34423828 43.52514648 C-33.65791028 42.00305769 -36.31701408 38.96478433 -40.02392578 34.99780273 C-40.69939453 34.30364258 -41.37486328 33.60948242 -42.07080078 32.89428711 C-48.003869 26.74081374 -48.003869 26.74081374 -48.52392578 22.06030273 C-48.14892578 18.43530273 -48.14892578 18.43530273 -46.02392578 15.93530273 C-43.14892578 14.43530273 -43.14892578 14.43530273 -40.33642578 14.18530273 C-36.15350142 15.82566523 -33.97953358 18.45118364 -31.07861328 21.81811523 C-29.33667783 23.65049618 -29.33667783 23.65049618 -27.34033203 23.34326172 C-24.20140428 22.04271891 -22.47961752 19.99317856 -20.15673828 17.52514648 C-19.19491926 16.52539275 -18.23266616 15.52605647 -17.27001953 14.52709961 C-15.7676343 12.95025859 -14.27044754 11.36909068 -12.78125 9.77978516 C-11.33635363 8.24407627 -9.87318656 6.7277482 -8.40673828 5.21264648 C-7.54193848 4.29733154 -6.67713867 3.3820166 -5.78613281 2.43896484 C-3.14892578 0.43530273 -3.14892578 0.43530273 0 0 Z " fill="#010405" transform="translate(78.14892578125,181.564697265625)"/>
<path d="M0 0 C3.00339193 2.00226129 3.81463343 3.25853373 4.6875 6.75 C2.88084789 15.29053727 -7.3107998 22.6874053 -13.3425293 28.85742188 C-14.41216137 29.95898082 -15.47364526 31.06850666 -16.52709961 32.18554688 C-18.07066461 33.82044285 -19.63902312 35.42749603 -21.21484375 37.03125 C-21.67656479 37.53112427 -22.13828583 38.03099854 -22.61399841 38.54602051 C-25.29650226 41.21313534 -27.37167518 42.34891349 -31.08032227 42.52758789 C-35.24768199 41.96666205 -36.58275961 41.43301335 -39.5 38.52734375 C-40.24121094 37.79193359 -40.98242188 37.05652344 -41.74609375 36.29882812 C-42.48988281 35.51958984 -43.23367188 34.74035156 -44 33.9375 C-44.77472656 33.18533203 -45.54945313 32.43316406 -46.34765625 31.65820312 C-51.82624218 26.0781619 -51.82624218 26.0781619 -52.62890625 21.09765625 C-52 18 -52 18 -49.9375 15.5 C-47 14 -47 14 -43.6875 13.75 C-38.46616763 15.51994318 -35.57813521 18.91999648 -32 23 C-28.24319696 21.45507598 -26.01957808 19.15516449 -23.26171875 16.2109375 C-22.35873047 15.26992188 -21.45574219 14.32890625 -20.52539062 13.359375 C-19.10195261 11.8678969 -17.68467491 10.37196265 -16.28051758 8.86230469 C-14.91577943 7.40040922 -13.52646358 5.9615814 -12.13671875 4.5234375 C-11.31905029 3.65638184 -10.50138184 2.78932617 -9.65893555 1.89599609 C-6.22248589 -0.55441875 -4.13417678 -0.47689221 0 0 Z " fill="#010203" transform="translate(366,46)"/>
<path d="M0 0 C3.00339193 2.00226129 3.81463343 3.25853373 4.6875 6.75 C2.88084789 15.29053727 -7.3107998 22.6874053 -13.3425293 28.85742188 C-14.41216137 29.95898082 -15.47364526 31.06850666 -16.52709961 32.18554688 C-18.07066461 33.82044285 -19.63902312 35.42749603 -21.21484375 37.03125 C-21.67656479 37.53112427 -22.13828583 38.03099854 -22.61399841 38.54602051 C-25.30611884 41.22269675 -27.37532558 42.34581948 -31.09619141 42.51391602 C-35.14093398 41.98144678 -36.44000808 41.56889746 -39.24609375 38.74609375 C-39.93767578 38.05580078 -40.62925781 37.36550781 -41.34179688 36.65429688 C-42.03337891 35.92275391 -42.72496094 35.19121094 -43.4375 34.4375 C-44.15615234 33.73302734 -44.87480469 33.02855469 -45.61523438 32.30273438 C-48.89104502 28.94649778 -50.79078993 26.73186299 -52.09765625 22.16015625 C-52 19 -52 19 -50 16 C-47 14 -47 14 -43.6875 13.6875 C-38.49929284 15.53415 -35.57783489 18.92033892 -32 23 C-28.24319696 21.45507598 -26.01957808 19.15516449 -23.26171875 16.2109375 C-22.35873047 15.26992188 -21.45574219 14.32890625 -20.52539062 13.359375 C-19.10195261 11.8678969 -17.68467491 10.37196265 -16.28051758 8.86230469 C-14.91577943 7.40040922 -13.52646358 5.9615814 -12.13671875 4.5234375 C-11.31905029 3.65638184 -10.50138184 2.78932617 -9.65893555 1.89599609 C-6.22248589 -0.55441875 -4.13417678 -0.47689221 0 0 Z " fill="#000203" transform="translate(194,46)"/>
<path d="M0 0 C3.3 0 6.6 0 10 0 C13.50487183 3.50487183 13.38324696 4.14133918 13.3984375 8.875 C13.40230469 10.02484375 13.40617187 11.1746875 13.41015625 12.359375 C13.39855469 13.56078125 13.38695312 14.7621875 13.375 16 C13.38660156 17.20140625 13.39820313 18.4028125 13.41015625 19.640625 C13.40628906 20.79046875 13.40242188 21.9403125 13.3984375 23.125 C13.39505371 24.17945313 13.39166992 25.23390625 13.38818359 26.3203125 C13 29 13 29 10 32 C6.7 32 3.4 32 0 32 C0 21.44 0 10.88 0 0 Z " fill="#FDA68E" transform="translate(332,237)"/>
<path d="M0 0 C3.3 0 6.6 0 10 0 C10 10.56 10 21.12 10 32 C6.7 32 3.4 32 0 32 C-3.50487183 28.49512817 -3.38324696 27.85866082 -3.3984375 23.125 C-3.40230469 21.97515625 -3.40617188 20.8253125 -3.41015625 19.640625 C-3.39855469 18.43921875 -3.38695312 17.2378125 -3.375 16 C-3.38660156 14.79859375 -3.39820313 13.5971875 -3.41015625 12.359375 C-3.40628906 11.20953125 -3.40242187 10.0596875 -3.3984375 8.875 C-3.39505371 7.82054687 -3.39166992 6.76609375 -3.38818359 5.6796875 C-3 3 -3 3 0 0 Z " fill="#FDAF9D" transform="translate(170,237)"/>
<path d="M0 0 C2.19165039 1.22460938 2.19165039 1.22460938 4 3 C4.50170898 5.22070312 4.50170898 5.22070312 4.49609375 7.78125 C4.49673828 8.70550781 4.49738281 9.62976563 4.49804688 10.58203125 C4.47806641 11.54496094 4.45808594 12.50789063 4.4375 13.5 C4.44458984 14.46292969 4.45167969 15.42585938 4.45898438 16.41796875 C4.39499782 23.47617777 4.39499782 23.47617777 2.68774414 25.74023438 C-0.11133789 27.8295246 -2.57145325 27.93985006 -6 28 C-8.1953125 26.6640625 -8.1953125 26.6640625 -10 24 C-10.57167537 20.4700099 -10.51218094 17.00532153 -10.4375 13.4375 C-10.44458984 12.47908203 -10.45167969 11.52066406 -10.45898438 10.53320312 C-10.39522191 3.5340459 -10.39522191 3.5340459 -8.68774414 1.22680664 C-5.86150999 -0.82755856 -3.3660138 -0.35431724 0 0 Z " fill="#030202" transform="translate(259,248)"/>
<path d="M0 0 C-1.66086912 5.56664924 -4.11071736 10.65786353 -6.625 15.875 C-7.04523438 16.75414062 -7.46546875 17.63328125 -7.8984375 18.5390625 C-8.9291692 20.69422878 -9.96309426 22.84779922 -11 25 C-15.02500075 23.18058084 -17.00102792 20.85164116 -19.75 17.375 C-20.54921875 16.37210937 -21.3484375 15.36921875 -22.171875 14.3359375 C-23.07679688 13.17964844 -23.07679688 13.17964844 -24 12 C-17.2649665 4.97372181 -10.16328885 -1.34232117 0 0 Z " fill="#5FD5F4" transform="translate(291,378)"/>
<path d="M0 0 C7.39150621 -1.1371548 11.27766294 1.67090413 17.265625 5.859375 C19.71085862 7.77364361 21.86877785 9.74699372 24 12 C22.21526335 14.17272288 20.42280648 16.33813771 18.625 18.5 C18.11710937 19.12003906 17.60921875 19.74007813 17.0859375 20.37890625 C15.76792394 21.95705407 14.38787368 23.48292487 13 25 C12.34 25 11.68 25 11 25 C9.16038326 21.21135025 7.32937928 17.41860225 5.5 13.625 C4.97535156 12.54476563 4.45070312 11.46453125 3.91015625 10.3515625 C3.16572266 8.8046875 3.16572266 8.8046875 2.40625 7.2265625 C1.71499023 5.79691162 1.71499023 5.79691162 1.00976562 4.33837891 C0 2 0 2 0 0 Z " fill="#5FD5F4" transform="translate(221,378)"/>
<path d="M0 0 C7.92 0 15.84 0 24 0 C24 2.97 24 5.94 24 9 C21.66475218 6.74259377 19.81294927 4.7194239 18 2 C15.08669922 1.75130359 12.40579705 1.67365722 9.5 1.75 C8.32244141 1.75773437 8.32244141 1.75773437 7.12109375 1.765625 C2.92592175 1.73349964 2.92592175 1.73349964 -1 3 C-0.67 2.01 -0.34 1.02 0 0 Z " fill="#DAE4E8" transform="translate(308,378)"/>
<path d="M0 0 C1.98 0 3.96 0 6 0 C6 2.64 6 5.28 6 8 C3.33264727 5.51047079 1.44253657 3.36591866 0 0 Z " fill="#DDEBF0" transform="translate(326,379)"/>
</svg>
